0
SECTION
2
HEADER
9
$INSUNITS
70
4
9
$ACADVER
1
AC1014
9
$HANDSEED
5
FFFF
0
ENDSEC
0
SECTION
2
TABLES
0
TABLE
2
VPORT
5
8
100
AcDbSymbolTable
0
ENDTAB
0
TABLE
2
LTYPE
5
5
100
AcDbSymbolTable
0
LTYPE
5
14
100
AcDbSymbolTableRecord
100
AcDbLinetypeTableRecord
2
BYBLOCK
70
0
0
LTYPE
5
15
100
AcDbSymbolTableRecord
100
AcDbLinetypeTableRecord
2
BYLAYER
70
0
0
ENDTAB
0
TABLE
2
LAYER
5
2
100
AcDbSymbolTable
70
2
0
LAYER
5
50
100
AcDbSymbolTableRecord
100
AcDbLayerTableRecord
2
0
70
0
6
CONTINUOUS
0
ENDTAB
0
TABLE
2
STYLE
5
3
100
AcDbSymbolTable
70
1
0
STYLE
5
11
100
AcDbSymbolTableRecord
100
AcDbTextStyleTableRecord
2
STANDARD
70
0
0
ENDTAB
0
TABLE
2
VIEW
5
6
100
AcDbSymbolTable
70
0
0
ENDTAB
0
TABLE
2
UCS
5
7
100
AcDbSymbolTable
70
0
0
ENDTAB
0
TABLE
2
APPID
5
9
100
AcDbSymbolTable
70
2
0
APPID
5
12
100
AcDbSymbolTableRecord
100
AcDbRegAppTableRecord
2
ACAD
70
0
0
ENDTAB
0
TABLE
2
DIMSTYLE
5
A
100
AcDbSymbolTable
70
1
0
ENDTAB
0
TABLE
2
BLOCK_RECORD
5
1
100
AcDbSymbolTable
70
1
0
BLOCK_RECORD
5
1F
100
AcDbSymbolTableRecord
100
AcDbBlockTableRecord
2
*MODEL_SPACE
0
BLOCK_RECORD
5
1B
100
AcDbSymbolTableRecord
100
AcDbBlockTableRecord
2
*PAPER_SPACE
0
ENDTAB
0
ENDSEC
0
SECTION
2
BLOCKS
0
BLOCK
5
20
100
AcDbEntity
100
AcDbBlockBegin
2
*MODEL_SPACE
0
ENDBLK
5
21
100
AcDbEntity
100
AcDbBlockEnd
0
BLOCK
5
1C
100
AcDbEntity
100
AcDbBlockBegin
2
*PAPER_SPACE
0
ENDBLK
5
1D
100
AcDbEntity
100
AcDbBlockEnd
0
ENDSEC
0
SECTION
2
ENTITIES
0
LWPOLYLINE
5
100
100
AcDbEntity
8
0
100
AcDbPolyline
90
4
70
1
43
0.0
10
-222.20000000000002
20
58.750000000000028
10
-244.80000000000001
20
58.750000000000028
10
-244.80000000000001
20
48.650000000000034
10
-222.20000000000002
20
48.650000000000034
0
CIRCLE
5
101
100
AcDbEntity
8
0
100
AcDbCircle
10
-251.80000000000004
20
61.200000000000038
30
0
40
1.6000000000000014
210
-1.3494013367337956e-78
220
8.2005323578734903e-141
230
1
0
CIRCLE
5
102
100
AcDbEntity
8
0
100
AcDbCircle
10
-171.75
20
61.250000000000028
30
0
40
1.6000000000000014
210
-1.3494013367337956e-78
220
8.2005323578734903e-141
230
1
0
CIRCLE
5
103
100
AcDbEntity
8
0
100
AcDbCircle
10
-171.75
20
39.250000000000021
30
0
40
1.6000000000000014
210
-1.3494013367337956e-78
220
8.2005323578734903e-141
230
1
0
CIRCLE
5
104
100
AcDbEntity
8
0
100
AcDbCircle
10
-262.11500000000007
20
72.824999999999974
30
0
40
1.5000000000000213
210
-1.3494013367337958e-78
220
8.2005323578734938e-141
230
1
0
CIRCLE
5
105
100
AcDbEntity
8
0
100
AcDbCircle
10
-204.96500000000003
20
72.824999999999974
30
0
40
1.4999999999999858
210
-4.861730685829018e-63
220
2.9545531576920689e-125
230
1
0
CIRCLE
5
106
100
AcDbEntity
8
0
100
AcDbCircle
10
-222.19999999999999
20
61.450000000000031
30
0
40
1.4249999999999829
210
-1.3494013367337956e-78
220
8.2005323578734926e-141
230
1
0
CIRCLE
5
107
100
AcDbEntity
8
0
100
AcDbCircle
10
-231.35000000000002
20
61.450000000000031
30
0
40
1.4249999999999829
210
-1.3494013367337956e-78
220
8.2005323578734926e-141
230
1
0
CIRCLE
5
108
100
AcDbEntity
8
0
100
AcDbCircle
10
-251.80000000000004
20
39.200000000000024
30
0
40
1.6000000000000014
210
-1.3494013367337956e-78
220
8.2005323578734903e-141
230
1
0
LINE
5
109
100
AcDbEntity
8
0
100
AcDbLine
10
-258.59000000000003
20
68.999999999999972
30
0
11
-258.59000000000003
21
72.824999999999974
31
0
0
ARC
5
110
100
AcDbEntity
8
0
100
AcDbCircle
10
-262.11500000000007
20
72.824999999999974
30
0
40
3.5249999999999915
210
-0
220
0
230
1
100
AcDbArc
50
0
51
180
0
LINE
5
111
100
AcDbEntity
8
0
100
AcDbLine
10
-265.64000000000004
20
72.824999999999974
30
-4.7566397119866169e-78
11
-265.64000000000004
21
35.499999999999979
31
0
0
LINE
5
112
100
AcDbEntity
8
0
100
AcDbLine
10
-265.64000000000004
20
35.499999999999979
30
0
11
-168.5
21
35.499999999999979
31
-1.0947644252537633e-46
0
ARC
5
113
100
AcDbEntity
8
0
100
AcDbCircle
10
-168.5
20
36.500000000000014
30
0
40
1.0000000000000364
210
0
220
-1.0947644252537235e-46
230
1
100
AcDbArc
50
-90
51
0
0
LINE
5
114
100
AcDbEntity
8
0
100
AcDbLine
10
-167.5
20
36.500000000000014
30
0
11
-167.50000000000006
21
45.505000000000024
31
0
0
LINE
5
115
100
AcDbEntity
8
0
100
AcDbLine
10
-167.49999625608325
20
45.505000000000024
30
0
11
-175.40499999999997
21
45.505000000000024
31
-1.0667022618926894e-77
0
LINE
5
116
100
AcDbEntity
8
0
100
AcDbLine
10
-175.40499999999997
20
45.505000000000024
30
-1.0667022618926894e-77
11
-175.40499999999997
21
57.745000000000026
31
0
0
LINE
5
117
100
AcDbEntity
8
0
100
AcDbLine
10
-175.40499999999997
20
57.745000000000026
30
0
11
-167.49999625608325
21
57.745000000000026
31
1.0667022618926894e-77
0
LINE
5
118
100
AcDbEntity
8
0
100
AcDbLine
10
-167.50000000000006
20
57.745000000000026
30
0
11
-167.50000000000006
21
68.000000000000028
31
0
0
ARC
5
119
100
AcDbEntity
8
0
100
AcDbCircle
10
-168.49999999999994
20
68.000000000000085
30
0
40
0.9999999999998721
210
0
220
0
230
1
100
AcDbArc
50
0
51
90.000000000003254
0
LINE
5
120
100
AcDbEntity
8
0
100
AcDbLine
10
-168.5
20
69.000000000000028
30
0
11
-187.16000000000003
21
69.000001028180122
31
0
0
LINE
5
121
100
AcDbEntity
8
0
100
AcDbLine
10
-187.16000000000003
20
69.000001028180122
30
0
11
-187.16000000000003
21
59.720000000000041
31
0
0
LINE
5
122
100
AcDbEntity
8
0
100
AcDbLine
10
-187.16000000000003
20
59.720000000000041
30
0
11
-193.30000000000001
21
59.720000000000041
31
-8.285324207545516e-78
0
LINE
5
123
100
AcDbEntity
8
0
100
AcDbLine
10
-193.30000000000001
20
59.720000000000041
30
-8.285324207545516e-78
11
-193.30000000000001
21
69.000001028180122
31
0
0
LINE
5
124
100
AcDbEntity
8
0
100
AcDbLine
10
-193.30000000000001
20
69.000001028180122
30
0
11
-201.44000000000005
21
68.999999999999972
31
0
0
LINE
5
125
100
AcDbEntity
8
0
100
AcDbLine
10
-201.44000000000005
20
68.999999999999972
30
0
11
-201.44000000000005
21
72.824999999999974
31
0
0
ARC
5
126
100
AcDbEntity
8
0
100
AcDbCircle
10
-204.96500000000003
20
72.824999999999974
30
0
40
3.5249999999999915
210
-0
220
0
230
1
100
AcDbArc
50
0
51
180
0
LINE
5
127
100
AcDbEntity
8
0
100
AcDbLine
10
-208.49000000000004
20
72.824999999999974
30
-4.7566397119866169e-78
11
-208.49000000000004
21
68.999999999999972
31
0
0
LINE
5
128
100
AcDbEntity
8
0
100
AcDbLine
10
-208.49000000000004
20
68.999999999999972
30
0
11
-258.59000000000003
21
68.999999999999972
31
0
0
ENDSEC
0
SECTION
2
OBJECTS
0
DICTIONARY
5
C
100
AcDbDictionary
3
ACAD_GROUP
350
D
3
ACAD_MLINESTYLE
350
17
0
DICTIONARY
5
D
100
AcDbDictionary
0
DICTIONARY
5
1A
330
C
100
AcDbDictionary
0
DICTIONARY
5
17
100
AcDbDictionary
0
ENDSEC
0
EOF
