0
SECTION
2
HEADER
9
$INSUNITS
70
4
9
$ACADVER
1
AC1014
9
$HANDSEED
5
FFFF
0
ENDSEC
0
SECTION
2
TABLES
0
TABLE
2
VPORT
5
8
100
AcDbSymbolTable
0
ENDTAB
0
TABLE
2
LTYPE
5
5
100
AcDbSymbolTable
0
LTYPE
5
14
100
AcDbSymbolTableRecord
100
AcDbLinetypeTableRecord
2
BYBLOCK
70
0
0
LTYPE
5
15
100
AcDbSymbolTableRecord
100
AcDbLinetypeTableRecord
2
BYLAYER
70
0
0
ENDTAB
0
TABLE
2
LAYER
5
2
100
AcDbSymbolTable
70
2
0
LAYER
5
50
100
AcDbSymbolTableRecord
100
AcDbLayerTableRecord
2
0
70
0
6
CONTINUOUS
0
ENDTAB
0
TABLE
2
STYLE
5
3
100
AcDbSymbolTable
70
1
0
STYLE
5
11
100
AcDbSymbolTableRecord
100
AcDbTextStyleTableRecord
2
STANDARD
70
0
0
ENDTAB
0
TABLE
2
VIEW
5
6
100
AcDbSymbolTable
70
0
0
ENDTAB
0
TABLE
2
UCS
5
7
100
AcDbSymbolTable
70
0
0
ENDTAB
0
TABLE
2
APPID
5
9
100
AcDbSymbolTable
70
2
0
APPID
5
12
100
AcDbSymbolTableRecord
100
AcDbRegAppTableRecord
2
ACAD
70
0
0
ENDTAB
0
TABLE
2
DIMSTYLE
5
A
100
AcDbSymbolTable
70
1
0
ENDTAB
0
TABLE
2
BLOCK_RECORD
5
1
100
AcDbSymbolTable
70
1
0
BLOCK_RECORD
5
1F
100
AcDbSymbolTableRecord
100
AcDbBlockTableRecord
2
*MODEL_SPACE
0
BLOCK_RECORD
5
1B
100
AcDbSymbolTableRecord
100
AcDbBlockTableRecord
2
*PAPER_SPACE
0
ENDTAB
0
ENDSEC
0
SECTION
2
BLOCKS
0
BLOCK
5
20
100
AcDbEntity
100
AcDbBlockBegin
2
*MODEL_SPACE
0
ENDBLK
5
21
100
AcDbEntity
100
AcDbBlockEnd
0
BLOCK
5
1C
100
AcDbEntity
100
AcDbBlockBegin
2
*PAPER_SPACE
0
ENDBLK
5
1D
100
AcDbEntity
100
AcDbBlockEnd
0
ENDSEC
0
SECTION
2
ENTITIES
0
LWPOLYLINE
5
100
100
AcDbEntity
8
0
100
AcDbPolyline
90
72
70
1
43
0.0
10
-25.575000000000003
20
-5.5500000000000016
42
-0.41421356237309725
10
-27.074999999999999
20
-7.0500000000000016
10
-30.074999999999996
20
-7.0500000000000052
42
-0.41421356237309592
10
-31.574999999999992
20
-5.5500000000000016
10
-31.574999999999992
20
-1.0250000000000006
42
0.41421356237309515
10
-32.074999999999989
20
-0.52500000000000024
10
-63.175000000000011
20
-0.52500000000000036
42
0.41421356237309503
10
-63.675000000000011
20
-1.0250000000000004
10
-63.675000000000011
20
-5.5500000000000016
42
-0.4142135623730937
10
-65.175000000000011
20
-7.0500000000000007
10
-68.175000000000011
20
-7.0500000000000052
42
-0.41421356237309176
10
-69.675000000000011
20
-5.5500000000000007
10
-69.675000000000011
20
-1.0250000000000008
42
0.41421356237310036
10
-70.175000000000011
20
-0.52500000000000058
10
-215.57500000000005
20
-0.52500000000000202
42
0.41421356237309537
10
-216.07500000000002
20
-1.0250000000000026
10
-216.07500000000002
20
-5.5500000000001091
42
-0.41421356237309986
10
-217.57499999999999
20
-7.0500000000001091
10
-220.57500000000002
20
-7.0500000000001242
42
-0.41421356237311369
10
-222.07499999999999
20
-5.5500000000001135
10
-222.07499999999999
20
-1.0250000000000019
42
0.41421356237309515
10
-222.57499999999999
20
-0.52500000000000169
10
-253.67500000000007
20
-0.52500000000000202
42
0.41421356237309537
10
-254.17500000000004
20
-1.0250000000000026
10
-254.17500000000004
20
-5.5500000000001668
42
-0.41421356237309986
10
-255.67500000000001
20
-7.0500000000001677
10
-258.67500000000001
20
-7.0500000000001819
42
-0.41421356237309986
10
-260.17499999999995
20
-5.5500000000001712
10
-260.17499999999995
20
-1.0250000000000021
42
0.41421356237309515
10
-260.67500000000001
20
-0.52500000000000191
10
-284.27500000000009
20
-0.52500000000004043
42
-0.41421356237309548
10
-286.27500000000009
20
1.4749999999999908
10
-286.27500000000009
20
122.35000000000001
42
-0.41421356237309503
10
-284.27500000000015
20
124.35000000000001
10
-260.67499999999995
20
124.35000000000001
42
0.41421356237309503
10
-260.17499999999995
20
124.85000000000001
10
-260.17499999999995
20
129.37500000000014
42
-0.41421356237309853
10
-258.67500000000001
20
130.87500000000014
10
-255.67500000000007
20
130.87500000000014
42
-0.41421356237310542
10
-254.17500000000004
20
129.37500000000014
10
-254.17500000000004
20
124.85000000000001
42
0.41421356237309503
10
-253.67500000000004
20
124.35000000000001
10
-222.57499999999999
20
124.35000000000001
42
0.41421356237309503
10
-222.07499999999999
20
124.85000000000001
10
-222.07499999999999
20
129.37500000000014
42
-0.41421356237311241
10
-220.57500000000002
20
130.87500000000014
10
-217.57500000000005
20
130.87500000000014
42
-0.41421356237310542
10
-216.07500000000002
20
129.37500000000014
10
-216.07500000000002
20
124.85000000000001
42
0.41421356237309503
10
-215.57500000000002
20
124.35000000000001
10
-70.175000000000011
20
124.35000000000001
42
0.41421356237309503
10
-69.675000000000011
20
124.85000000000001
10
-69.675000000000011
20
129.375
42
-0.41421356237308815
10
-68.175000000000011
20
130.875
10
-65.175000000000011
20
130.875
42
-0.41421356237308815
10
-63.675000000000011
20
129.375
10
-63.675000000000011
20
124.85000000000001
42
0.41421356237308982
10
-63.175000000000026
20
124.35000000000001
10
-32.074999999999996
20
124.35000000000001
42
0.41421356237309503
10
-31.574999999999992
20
124.85000000000001
10
-31.575000000000003
20
129.375
42
-0.41421356237308898
10
-30.074999999999996
20
130.875
10
-27.074999999999921
20
130.875
42
-0.41421356237309853
10
-25.574999999999925
20
129.37499999999997
10
-25.575000000000003
20
124.85000000000001
42
0.41421356237309503
10
-25.075000000000003
20
124.35000000000001
10
-1.475000000000009
20
124.35000000000001
42
-0.41421356237309503
10
0.52499999999998437
20
122.35000000000001
10
0.52499999999998492
20
1.4750000000000096
42
-0.4142135623730967
10
-1.4750000000000174
20
-0.52500000000000002
10
-25.075000000000003
20
-0.52500000000000036
42
0.41421356237309503
10
-25.575000000000003
20
-1.0250000000000004
0
LWPOLYLINE
5
101
100
AcDbEntity
8
0
100
AcDbPolyline
90
16
70
1
43
0.0
10
-16.787500000000005
20
50.150000000000013
10
-16.787500000000005
20
48.650000000000013
10
-11.787500000000001
20
48.650000000000013
10
-11.787500000000001
20
50.150000000000013
10
-7.7875000000000005
20
50.150000000000013
42
0.41421356237309764
10
-7.2875000000000023
20
50.650000000000013
10
-7.2874999999999961
20
63.65000000000002
42
0.41421356237310608
10
-7.7875000000000005
20
64.150000000000006
10
-11.787500000000001
20
64.15000000000002
10
-11.787500000000001
20
65.65000000000002
10
-16.787500000000005
20
65.65000000000002
10
-16.787500000000005
20
64.15000000000002
10
-20.787500000000001
20
64.150000000000006
42
0.41421356237311063
10
-21.287500000000001
20
63.65000000000002
10
-21.287500000000005
20
50.650000000000013
42
0.41421356237309764
10
-20.787500000000001
20
50.150000000000013
0
LWPOLYLINE
5
102
100
AcDbEntity
8
0
100
AcDbPolyline
90
16
70
1
43
0.0
10
-212.04999999999998
20
64.15000000000002
10
-216.05000000000004
20
64.150000000000006
42
0.41421356237301699
10
-216.55000000000001
20
63.65000000000002
10
-216.55000000000004
20
50.650000000000013
42
0.41421356237313145
10
-216.05000000000004
20
50.150000000000013
10
-212.04999999999998
20
50.150000000000013
10
-212.04999999999998
20
48.650000000000013
10
-207.04999999999998
20
48.65000000000002
10
-207.04999999999998
20
50.15000000000002
10
-203.05000000000007
20
50.150000000000013
42
0.41421356237318868
10
-202.55000000000001
20
50.650000000000013
10
-202.55000000000001
20
63.65000000000002
42
0.41421356237307944
10
-203.05000000000007
20
64.150000000000034
10
-207.04999999999998
20
64.150000000000006
10
-207.04999999999998
20
65.650000000000006
10
-212.04999999999998
20
65.65000000000002
0
LWPOLYLINE
5
103
100
AcDbEntity
8
0
100
AcDbPolyline
90
16
70
1
43
0.0
10
-273.72500000000002
20
2.5250000000000039
10
-269.72500000000002
20
2.5250000000000039
42
0.41421356237310902
10
-269.22500000000002
20
3.0250000000000021
10
-269.22500000000002
20
16.024999999999999
42
0.41421356237312756
10
-269.72500000000002
20
16.524999999999984
10
-273.72500000000002
20
16.524999999999999
10
-273.72500000000002
20
18.025000000000002
10
-278.72500000000002
20
18.025000000000002
10
-278.72500000000002
20
16.524999999999999
10
-282.72500000000002
20
16.525000000000002
42
0.41421356237318741
10
-283.22500000000002
20
16.024999999999999
10
-283.22500000000002
20
3.0249999999999999
42
0.414213562373135
10
-282.72500000000002
20
2.5249999999999861
10
-278.72500000000002
20
2.5250000000000039
10
-278.72500000000002
20
1.0250000000000004
10
-273.72500000000002
20
1.0250000000000004
0
LWPOLYLINE
5
104
100
AcDbEntity
8
0
100
AcDbPolyline
90
16
70
1
43
0.0
10
-231.09999999999999
20
50.150000000000013
10
-231.09999999999999
20
48.650000000000013
10
-226.09999999999999
20
48.65000000000002
10
-226.09999999999999
20
50.15000000000002
10
-222.10000000000002
20
50.150000000000013
42
0.41421356237313145
10
-221.59999999999999
20
50.650000000000013
10
-221.60000000000002
20
63.65000000000002
42
0.41421356237303258
10
-222.10000000000002
20
64.150000000000006
10
-226.09999999999999
20
64.150000000000006
10
-226.09999999999999
20
65.650000000000006
10
-231.09999999999999
20
65.65000000000002
10
-231.09999999999999
20
64.15000000000002
10
-235.10000000000002
20
64.150000000000006
42
0.41421356237315748
10
-235.60000000000002
20
63.65000000000002
10
-235.60000000000002
20
50.650000000000013
42
0.41421356237314705
10
-235.10000000000002
20
50.150000000000006
0
LWPOLYLINE
5
105
100
AcDbEntity
8
0
100
AcDbPolyline
90
16
70
1
43
0.0
10
-250.15000000000001
20
50.150000000000013
10
-250.15000000000001
20
48.650000000000013
10
-245.15000000000001
20
48.65000000000002
10
-245.15000000000001
20
50.15000000000002
10
-241.15000000000006
20
50.150000000000034
42
0.41421356237309503
10
-240.65000000000001
20
50.650000000000013
10
-240.65000000000001
20
63.65000000000002
42
0.41421356237310542
10
-241.15000000000006
20
64.150000000000006
10
-245.15000000000001
20
64.150000000000006
10
-245.15000000000001
20
65.650000000000006
10
-250.15000000000001
20
65.65000000000002
10
-250.15000000000001
20
64.15000000000002
10
-254.15000000000006
20
64.15000000000002
42
0.41421356237307422
10
-254.65000000000003
20
63.65000000000002
10
-254.65000000000001
20
50.650000000000013
42
0.41421356237310025
10
-254.15000000000006
20
50.150000000000006
0
LWPOLYLINE
5
106
100
AcDbEntity
8
0
100
AcDbPolyline
90
16
70
1
43
0.0
10
-273.96250000000003
20
50.150000000000013
10
-273.96250000000003
20
48.650000000000013
10
-268.96250000000003
20
48.65000000000002
10
-268.96250000000003
20
50.15000000000002
10
-264.96249999999998
20
50.149999999999999
42
0.41421356237311585
10
-264.46249999999998
20
50.650000000000013
10
-264.46249999999998
20
63.65000000000002
42
0.41421356237317308
10
-264.96249999999998
20
64.150000000000006
10
-268.96250000000003
20
64.150000000000006
10
-268.96250000000003
20
65.650000000000006
10
-273.96250000000003
20
65.65000000000002
10
-273.96250000000003
20
64.15000000000002
10
-277.96249999999998
20
64.150000000000034
42
0.41421356237307944
10
-278.46250000000003
20
63.65000000000002
10
-278.46250000000003
20
50.650000000000013
42
0.41421356237307944
10
-277.96249999999998
20
50.150000000000006
0
LWPOLYLINE
5
107
100
AcDbEntity
8
0
100
AcDbPolyline
90
16
70
1
43
0.0
10
-78.700000000000017
20
64.15000000000002
10
-82.700000000000017
20
64.150000000000006
42
0.41421356237311585
10
-83.200000000000003
20
63.65000000000002
10
-83.200000000000017
20
50.650000000000013
42
0.41421356237307944
10
-82.700000000000017
20
50.150000000000006
10
-78.700000000000017
20
50.150000000000013
10
-78.700000000000017
20
48.650000000000013
10
-73.700000000000017
20
48.65000000000002
10
-73.700000000000017
20
50.15000000000002
10
-69.700000000000003
20
50.150000000000013
42
0.41421356237310542
10
-69.200000000000017
20
50.650000000000013
10
-69.200000000000003
20
63.65000000000002
42
0.41421356237311063
10
-69.700000000000003
20
64.150000000000006
10
-73.700000000000017
20
64.150000000000006
10
-73.700000000000017
20
65.650000000000006
10
-78.700000000000017
20
65.65000000000002
0
LWPOLYLINE
5
108
100
AcDbEntity
8
0
100
AcDbPolyline
90
16
70
1
43
0.0
10
-40.600000000000009
20
50.150000000000013
10
-40.600000000000009
20
48.650000000000013
10
-35.600000000000009
20
48.65000000000002
10
-35.600000000000009
20
50.15000000000002
10
-31.600000000000001
20
50.15000000000002
42
0.41421356237310281
10
-31.100000000000001
20
50.650000000000013
10
-31.100000000000001
20
63.65000000000002
42
0.41421356237307944
10
-31.600000000000001
20
64.150000000000006
10
-35.600000000000009
20
64.150000000000006
10
-35.600000000000009
20
65.650000000000006
10
-40.600000000000009
20
65.65000000000002
10
-40.600000000000009
20
64.15000000000002
10
-44.600000000000001
20
64.150000000000006
42
0.41421356237309503
10
-45.100000000000009
20
63.65000000000002
10
-45.100000000000009
20
50.650000000000013
42
0.41421356237310025
10
-44.600000000000001
20
50.150000000000013
0
LWPOLYLINE
5
109
100
AcDbEntity
8
0
100
AcDbPolyline
90
16
70
1
43
0.0
10
-92.987499999999997
20
2.524999999999995
10
-92.987499999999997
20
1.0250000000000004
10
-87.987499999999997
20
1.0250000000000004
10
-87.987499999999997
20
2.524999999999995
10
-83.987499999999983
20
2.524999999999987
42
0.41421356237309082
10
-83.487499999999983
20
3.0250000000000021
10
-83.487500000000026
20
16.024999999999999
42
0.4142135623730599
10
-83.987499999999983
20
16.525000000000006
10
-87.987499999999997
20
16.525000000000002
10
-87.987499999999997
20
18.025000000000002
10
-92.987499999999997
20
18.025000000000002
10
-92.987499999999997
20
16.525000000000002
10
-96.987500000000011
20
16.524999999999988
42
0.41421356237310542
10
-97.487500000000011
20
16.024999999999999
10
-97.487500000000011
20
3.0249999999999999
42
0.41421356237309437
10
-96.987500000000011
20
2.524999999999995
0
LWPOLYLINE
5
110
100
AcDbEntity
8
0
100
AcDbPolyline
90
16
70
1
43
0.0
10
-12.025000000000006
20
31.100000000000001
10
-12.025000000000006
20
29.600000000000001
10
-7.0250000000000057
20
29.600000000000001
10
-7.0250000000000057
20
31.100000000000001
10
-3.0249999999999999
20
31.100000000000001
42
0.41421356237309598
10
-2.5250000000000017
20
31.600000000000001
10
-2.5249999999999941
20
44.600000000000001
42
0.41421356237310575
10
-3.0249999999999999
20
45.100000000000009
10
-7.0250000000000057
20
45.099999999999994
10
-7.0250000000000057
20
46.600000000000001
10
-12.025000000000006
20
46.600000000000001
10
-12.025000000000006
20
45.099999999999994
10
-16.024999999999999
20
45.099999999999994
42
0.41421356237310936
10
-16.524999999999999
20
44.600000000000001
10
-16.525000000000002
20
31.600000000000001
42
0.41421356237309503
10
-16.024999999999999
20
31.100000000000001
0
LWPOLYLINE
5
111
100
AcDbEntity
8
0
100
AcDbPolyline
90
16
70
1
43
0.0
10
-249.91250000000002
20
16.524999999999999
10
-249.91250000000002
20
18.025000000000002
10
-254.91250000000002
20
18.025000000000002
10
-254.91250000000002
20
16.524999999999999
10
-258.91250000000002
20
16.525000000000013
42
0.41421356237313273
10
-259.41250000000002
20
16.024999999999999
10
-259.41250000000002
20
3.0249999999999999
42
0.41421356237314771
10
-258.91250000000002
20
2.524999999999995
10
-254.91250000000002
20
2.5250000000000039
10
-254.91250000000002
20
1.0250000000000004
10
-249.91250000000002
20
1.0250000000000004
10
-249.91250000000002
20
2.5250000000000039
10
-245.91250000000002
20
2.5250000000000146
42
0.41421356237312951
10
-245.41250000000002
20
3.0250000000000021
10
-245.41249999999997
20
16.024999999999999
42
0.41421356237310936
10
-245.91250000000002
20
16.525000000000006
0
CIRCLE
5
112
100
AcDbEntity
8
0
100
AcDbCircle
10
-257.17500000000001
20
-4.0500000000001659
30
0
40
1.4999999999999858
0
LWPOLYLINE
5
113
100
AcDbEntity
8
0
100
AcDbPolyline
90
16
70
1
43
0.0
10
-278.72500000000002
20
31.100000000000001
10
-278.72500000000002
20
29.600000000000001
10
-273.72500000000002
20
29.600000000000001
10
-273.72500000000002
20
31.100000000000001
10
-269.72500000000002
20
31.100000000000016
42
0.41421356237312623
10
-269.22500000000002
20
31.600000000000001
10
-269.22500000000002
20
44.600000000000001
42
0.4142135623730846
10
-269.72500000000002
20
45.100000000000009
10
-273.72500000000002
20
45.099999999999994
10
-273.72500000000002
20
46.600000000000001
10
-278.72500000000002
20
46.600000000000001
10
-278.72500000000002
20
45.099999999999994
10
-282.72500000000002
20
45.100000000000016
42
0.41421356237311063
10
-283.22500000000002
20
44.600000000000001
10
-283.22500000000002
20
31.600000000000001
42
0.41421356237314444
10
-282.72500000000002
20
31.099999999999994
0
LWPOLYLINE
5
114
100
AcDbEntity
8
0
100
AcDbPolyline
90
16
70
1
43
0.0
10
-12.025000000000002
20
2.5250000000000039
10
-12.025000000000002
20
1.0250000000000004
10
-7.0249999999999986
20
1.0250000000000004
10
-7.0249999999999986
20
2.5250000000000039
10
-3.0249999999999999
20
2.5249999999999999
42
0.4142135623730957
10
-2.5249999999999995
20
3.0250000000000021
10
-2.5249999999999995
20
16.024999999999999
42
0.41421356237309342
10
-3.0249999999999999
20
16.525000000000002
10
-7.0249999999999986
20
16.524999999999999
10
-7.0249999999999986
20
18.025000000000002
10
-12.025000000000002
20
18.025000000000002
10
-12.025000000000002
20
16.524999999999999
10
-16.024999999999999
20
16.525000000000002
42
0.41421356237308982
10
-16.525000000000002
20
16.024999999999999
10
-16.525000000000002
20
3.0249999999999999
42
0.41421356237309342
10
-16.024999999999999
20
2.5250000000000039
0
LWPOLYLINE
5
115
100
AcDbEntity
8
0
100
AcDbPolyline
90
16
70
1
43
0.0
10
-192.76250000000005
20
2.5250000000000039
10
-188.76249999999999
20
2.5250000000000039
42
0.41421356237310902
10
-188.26249999999993
20
3.0250000000000021
10
-188.26249999999999
20
16.024999999999999
42
0.41421356237312756
10
-188.76249999999999
20
16.524999999999981
10
-192.76250000000005
20
16.524999999999999
10
-192.76250000000005
20
18.025000000000002
10
-197.76250000000005
20
18.025000000000002
10
-197.76250000000005
20
16.524999999999999
10
-201.76249999999999
20
16.525000000000002
42
0.41421356237318741
10
-202.26249999999996
20
16.024999999999999
10
-202.26249999999999
20
3.0249999999999999
42
0.414213562373135
10
-201.76249999999999
20
2.5249999999999861
10
-197.76250000000005
20
2.5250000000000039
10
-197.76250000000005
20
1.0250000000000004
10
-192.76250000000005
20
1.0250000000000004
0
LWPOLYLINE
5
116
100
AcDbEntity
8
0
100
AcDbPolyline
90
16
70
1
43
0.0
10
-149.90000000000003
20
16.524999999999999
10
-149.90000000000003
20
18.025000000000002
10
-154.90000000000003
20
18.025000000000002
10
-154.90000000000003
20
16.524999999999999
10
-158.90000000000001
20
16.524999999999988
42
0.41421356237310542
10
-159.40000000000001
20
16.024999999999999
10
-159.40000000000001
20
3.0249999999999999
42
0.41421356237309437
10
-158.90000000000001
20
2.524999999999995
10
-154.90000000000003
20
2.5250000000000039
10
-154.90000000000003
20
1.0250000000000004
10
-149.90000000000003
20
1.0250000000000004
10
-149.90000000000003
20
2.5250000000000039
10
-145.90000000000001
20
2.5249999999999915
42
0.41421356237305956
10
-145.40000000000001
20
3.0250000000000021
10
-145.40000000000001
20
16.024999999999999
42
0.41421356237305729
10
-145.90000000000001
20
16.525000000000006
0
LWPOLYLINE
5
117
100
AcDbEntity
8
0
100
AcDbPolyline
90
16
70
1
43
0.0
10
-14.168750000000001
20
83.200000000000003
10
-14.168750000000001
20
84.699999999999989
10
-19.168750000000003
20
84.699999999999989
10
-19.168750000000003
20
83.200000000000003
10
-23.168749999999999
20
83.199999999999989
42
0.41421356237310542
10
-23.66875000000001
20
82.700000000000017
10
-23.668750000000003
20
69.700000000000003
42
0.41421356237310281
10
-23.168749999999999
20
69.200000000000003
10
-19.168750000000003
20
69.200000000000003
10
-19.168750000000003
20
67.700000000000003
10
-14.168750000000001
20
67.700000000000003
10
-14.168750000000001
20
69.200000000000003
10
-10.168749999999999
20
69.200000000000003
42
0.41421356237309764
10
-9.6687499999999993
20
69.700000000000003
10
-9.6687499999999904
20
82.700000000000017
42
0.41421356237305862
10
-10.168749999999999
20
83.200000000000017
0
LWPOLYLINE
5
118
100
AcDbEntity
8
0
100
AcDbPolyline
90
16
70
1
43
0.0
10
-226.33749999999998
20
107.29999999999998
10
-226.33749999999998
20
105.8
10
-221.33749999999998
20
105.8
10
-221.33749999999998
20
107.30000000000001
10
-217.33749999999998
20
107.29999999999998
42
0.41421356237313667
10
-216.83750000000003
20
107.80000000000001
10
-216.83750000000003
20
120.8
42
0.41421356237307422
10
-217.33750000000001
20
121.30000000000001
10
-221.33749999999998
20
121.30000000000001
10
-221.33749999999998
20
122.8
10
-226.33749999999998
20
122.8
10
-226.33749999999998
20
121.30000000000001
10
-230.33750000000001
20
121.30000000000001
42
0.41421356237303258
10
-230.83750000000006
20
120.8
10
-230.83750000000003
20
107.80000000000001
42
0.41421356237313667
10
-230.33750000000001
20
107.30000000000001
0
LWPOLYLINE
5
119
100
AcDbEntity
8
0
100
AcDbPolyline
90
16
70
1
43
0.0
10
-135.84999999999999
20
16.525000000000002
10
-139.84999999999999
20
16.525000000000002
42
0.41421356237309243
10
-140.34999999999999
20
16.024999999999999
10
-140.34999999999999
20
3.0249999999999999
42
0.41421356237310608
10
-139.84999999999999
20
2.5250000000000128
10
-135.84999999999999
20
2.524999999999995
10
-135.84999999999999
20
1.0250000000000004
10
-130.84999999999999
20
1.0250000000000004
10
-130.84999999999999
20
2.524999999999995
10
-126.85000000000001
20
2.5249999999999999
42
0.41421356237306967
10
-126.34999999999999
20
3.0250000000000021
10
-126.34999999999999
20
16.024999999999999
42
0.41421356237305862
10
-126.85000000000001
20
16.525000000000006
10
-130.84999999999999
20
16.525000000000002
10
-130.84999999999999
20
18.025000000000002
10
-135.84999999999999
20
18.025000000000002
0
LWPOLYLINE
5
120
100
AcDbEntity
8
0
100
AcDbPolyline
90
16
70
1
43
0.0
10
-35.837500000000006
20
2.524999999999995
10
-35.837500000000006
20
1.0250000000000004
10
-30.837500000000002
20
1.0250000000000004
10
-30.837500000000002
20
2.524999999999995
10
-26.837499999999999
20
2.5250000000000012
42
0.41421356237309731
10
-26.337499999999999
20
3.0250000000000021
10
-26.337499999999999
20
16.024999999999999
42
0.41421356237309631
10
-26.837499999999999
20
16.524999999999999
10
-30.837500000000002
20
16.525000000000002
10
-30.837500000000002
20
18.025000000000002
10
-35.837500000000006
20
18.025000000000002
10
-35.837500000000006
20
16.525000000000002
10
-39.837500000000006
20
16.525000000000002
42
0.4142135623730846
10
-40.337500000000013
20
16.024999999999999
10
-40.337500000000013
20
3.0249999999999999
42
0.41421356237308982
10
-39.837499999999999
20
2.524999999999995
0
LWPOLYLINE
5
121
100
AcDbEntity
8
0
100
AcDbPolyline
90
16
70
1
43
0.0
10
-250.15000000000001
20
107.29999999999998
10
-250.15000000000001
20
105.8
10
-245.14999999999998
20
105.8
10
-245.14999999999998
20
107.30000000000001
10
-241.15000000000006
20
107.30000000000001
42
0.41421356237307422
10
-240.65000000000001
20
107.80000000000001
10
-240.65000000000003
20
120.8
42
0.41421356237309503
10
-241.15000000000006
20
121.30000000000001
10
-245.14999999999998
20
121.30000000000001
10
-245.14999999999998
20
122.8
10
-250.15000000000001
20
122.8
10
-250.15000000000001
20
121.30000000000001
10
-254.15000000000006
20
121.30000000000001
42
0.41421356237307422
10
-254.65000000000003
20
120.8
10
-254.65000000000003
20
107.80000000000001
42
0.4142135623730846
10
-254.15000000000006
20
107.30000000000001
0
LWPOLYLINE
5
122
100
AcDbEntity
8
0
100
AcDbPolyline
90
16
70
1
43
0.0
10
-35.57500000000001
20
44.600000000000001
42
-0.41421356237309503
10
-35.075000000000003
20
45.100000000000009
10
-31.07500000000001
20
45.099999999999994
10
-31.07500000000001
20
46.600000000000001
10
-26.07500000000001
20
46.600000000000001
10
-26.07500000000001
20
45.099999999999994
10
-22.074999999999999
20
45.099999999999994
42
-0.41421356237308982
10
-21.575000000000006
20
44.600000000000001
10
-21.575000000000006
20
31.600000000000001
42
-0.41421356237310281
10
-22.074999999999999
20
31.100000000000001
10
-26.07500000000001
20
31.100000000000001
10
-26.07500000000001
20
29.600000000000001
10
-31.07500000000001
20
29.600000000000001
10
-31.07500000000001
20
31.100000000000001
10
-35.075000000000003
20
31.099999999999998
42
-0.41421356237309243
10
-35.57500000000001
20
31.600000000000001
0
CIRCLE
5
123
100
AcDbEntity
8
0
100
AcDbCircle
10
-28.574999999999999
20
127.87500000000001
30
0
40
1.4999999999999991
0
LWPOLYLINE
5
124
100
AcDbEntity
8
0
100
AcDbPolyline
90
16
70
1
43
0.0
10
-230.86250000000004
20
2.5250000000000039
10
-226.86250000000001
20
2.5250000000000039
42
0.41421356237309731
10
-226.36250000000007
20
3.0250000000000021
10
-226.36250000000004
20
16.024999999999999
42
0.41421356237305473
10
-226.86250000000001
20
16.525000000000027
10
-230.86250000000004
20
16.524999999999999
10
-230.86250000000004
20
18.025000000000002
10
-235.86250000000004
20
18.025000000000002
10
-235.86250000000004
20
16.524999999999999
10
-239.86250000000001
20
16.525000000000002
42
0.41421356237318741
10
-240.36249999999998
20
16.024999999999999
10
-240.36250000000001
20
3.0249999999999999
42
0.414213562373135
10
-239.86250000000001
20
2.5249999999999861
10
-235.86250000000004
20
2.5250000000000039
10
-235.86250000000004
20
1.0250000000000004
10
-230.86250000000004
20
1.0250000000000004
0
LWPOLYLINE
5
125
100
AcDbEntity
8
0
100
AcDbPolyline
90
16
70
1
43
0.0
10
-107.27500000000001
20
31.100000000000001
10
-107.27500000000001
20
29.600000000000001
10
-102.27500000000001
20
29.600000000000001
10
-102.27500000000001
20
31.100000000000001
10
-98.275000000000006
20
31.100000000000001
42
0.41421356237312101
10
-97.77500000000002
20
31.600000000000001
10
-97.775000000000034
20
44.600000000000001
42
0.41421356237313145
10
-98.275000000000006
20
45.100000000000009
10
-102.27500000000001
20
45.099999999999994
10
-102.27500000000001
20
46.600000000000001
10
-107.27500000000001
20
46.600000000000001
10
-107.27500000000001
20
45.099999999999994
10
-111.27500000000001
20
45.100000000000009
42
0.41421356237309503
10
-111.77500000000002
20
44.600000000000001
10
-111.77500000000002
20
31.600000000000001
42
0.41421356237309243
10
-111.27500000000001
20
31.099999999999994
0
CIRCLE
5
126
100
AcDbEntity
8
0
100
AcDbCircle
10
-257.17500000000001
20
127.87500000000016
30
0
40
1.4999999999999858
0
LWPOLYLINE
5
127
100
AcDbEntity
8
0
100
AcDbPolyline
90
54
70
1
43
0.0
10
-252.53124999999997
20
88.25
10
-252.53125000000006
20
86.569999999999979
10
-255.88075000000009
20
86.569999999999979
10
-255.88075000000009
20
85.569999999999993
10
-272.75675000000001
20
85.569999999999993
10
-272.75675000000001
20
86.569999999999979
10
-273.72500000000008
20
86.569999999999979
10
-273.72499999999997
20
88.250000000000014
10
-269.72500000000002
20
88.250000000000014
42
0.41421356237307422
10
-269.22500000000008
20
88.75
10
-269.22500000000002
20
101.75
42
0.41421356237310542
10
-269.72500000000002
20
102.25000000000003
10
-273.72499999999997
20
102.25000000000001
10
-273.72499999999997
20
103.75
10
-278.72499999999997
20
103.75
10
-278.72499999999997
20
102.25000000000001
10
-282.72500000000002
20
102.25000000000001
42
0.41421356237314705
10
-283.22500000000002
20
101.75
10
-283.22500000000002
20
88.75
42
0.4142135623730222
10
-282.72500000000008
20
88.250000000000014
10
-278.72499999999997
20
88.25
10
-278.72500000000008
20
86.569999999999979
10
-279.75675000000001
20
86.569999999999979
10
-279.75675000000001
20
67.569999999999993
10
-272.75675000000001
20
67.569999999999993
10
-272.75675000000001
20
81.569999999999979
10
-271.31875000000002
20
81.569999999999979
10
-271.31875000000002
20
69.700000000000003
42
0.41421356237313145
10
-270.81875000000002
20
69.200000000000003
10
-266.81875000000002
20
69.199999999999989
10
-266.81875000000002
20
67.700000000000003
10
-261.81875000000002
20
67.700000000000003
10
-261.81875000000002
20
69.200000000000003
10
-257.81875000000002
20
69.200000000000003
42
0.41421356237316787
10
-257.31875000000002
20
69.700000000000003
10
-257.31875000000008
20
81.569999999999979
10
-255.88075000000009
20
81.569999999999979
10
-255.88075000000009
20
67.569999999999993
10
-248.88075000000009
20
67.569999999999993
10
-248.88075000000009
20
86.75
10
-247.53124999999997
20
86.75
10
-247.53124999999997
20
88.250000000000014
10
-243.53125000000009
20
88.250000000000014
42
0.41421356237312623
10
-243.03125
20
88.75
10
-243.03125
20
101.75
42
0.41421356237307422
10
-243.53125000000006
20
102.25000000000001
10
-247.53124999999997
20
102.25000000000001
10
-247.53124999999997
20
103.75
10
-252.53124999999997
20
103.75
10
-252.53124999999997
20
102.25000000000001
10
-256.53125000000006
20
102.25000000000003
42
0.41421356237310542
10
-257.03125000000006
20
101.75
10
-257.03125000000006
20
88.75
42
0.41421356237310542
10
-256.53125
20
88.250000000000014
0
LWPOLYLINE
5
128
100
AcDbEntity
8
0
100
AcDbPolyline
90
16
70
1
43
0.0
10
-145.375
20
31.100000000000001
10
-145.375
20
29.600000000000001
10
-140.375
20
29.600000000000001
10
-140.375
20
31.100000000000001
10
-136.375
20
31.099999999999998
42
0.41421356237308982
10
-135.87500000000003
20
31.600000000000001
10
-135.875
20
44.600000000000001
42
0.41421356237305862
10
-136.375
20
45.100000000000009
10
-140.375
20
45.099999999999994
10
-140.375
20
46.600000000000001
10
-145.375
20
46.600000000000001
10
-145.375
20
45.099999999999994
10
-149.375
20
45.100000000000009
42
0.41421356237309503
10
-149.875
20
44.600000000000001
10
-149.875
20
31.600000000000001
42
0.41421356237309243
10
-149.375
20
31.099999999999994
0
LWPOLYLINE
5
129
100
AcDbEntity
8
0
100
AcDbPolyline
90
16
70
1
43
0.0
10
-112.03749999999999
20
88.25
10
-112.03749999999999
20
86.75
10
-107.03749999999999
20
86.75
10
-107.03749999999999
20
88.250000000000014
10
-103.03750000000001
20
88.250000000000014
42
0.41421356237314705
10
-102.53749999999999
20
88.75
10
-102.53749999999999
20
101.75
42
0.41421356237309503
10
-103.03750000000001
20
102.25000000000001
10
-107.03749999999999
20
102.25000000000001
10
-107.03749999999999
20
103.75
10
-112.03749999999999
20
103.75
10
-112.03749999999999
20
102.25000000000001
10
-116.03749999999999
20
102.25000000000001
42
0.41421356237307422
10
-116.53750000000001
20
101.75
10
-116.53750000000001
20
88.75
42
0.41421356237316787
10
-116.03749999999999
20
88.250000000000014
0
LWPOLYLINE
5
130
100
AcDbEntity
8
0
100
AcDbPolyline
90
16
70
1
43
0.0
10
-188.23750000000001
20
88.25
10
-188.23750000000001
20
86.75
10
-183.23750000000001
20
86.75
10
-183.23750000000001
20
88.250000000000014
10
-179.23749999999998
20
88.250000000000014
42
0.4142135623730222
10
-178.73750000000001
20
88.75
10
-178.73750000000001
20
101.75
42
0.41421356237314705
10
-179.23750000000001
20
102.25000000000001
10
-183.23750000000001
20
102.25000000000001
10
-183.23750000000001
20
103.75
10
-188.23750000000001
20
103.75
10
-188.23750000000001
20
102.25000000000001
10
-192.23750000000007
20
102.25000000000003
42
0.41421356237310542
10
-192.73750000000007
20
101.75
10
-192.73750000000007
20
88.75
42
0.41421356237310542
10
-192.23750000000001
20
88.250000000000014
0
LWPOLYLINE
5
131
100
AcDbEntity
8
0
100
AcDbPolyline
90
16
70
1
43
0.0
10
-140.61249999999998
20
83.200000000000003
10
-144.61250000000001
20
83.200000000000017
42
0.4142135623730534
10
-145.11250000000001
20
82.700000000000017
10
-145.11250000000001
20
69.700000000000003
42
0.41421356237307944
10
-144.61250000000001
20
69.200000000000003
10
-140.61249999999998
20
69.200000000000003
10
-140.61249999999998
20
67.699999999999989
10
-135.61249999999998
20
67.700000000000003
10
-135.61249999999998
20
69.200000000000003
10
-131.61250000000001
20
69.200000000000003
42
0.41421356237312623
10
-131.11250000000001
20
69.700000000000003
10
-131.11250000000001
20
82.700000000000017
42
0.41421356237307422
10
-131.61250000000001
20
83.200000000000017
10
-135.61249999999998
20
83.200000000000003
10
-135.61249999999998
20
84.699999999999989
10
-140.61249999999998
20
84.700000000000003
0
LWPOLYLINE
5
132
100
AcDbEntity
8
0
100
AcDbPolyline
90
16
70
1
43
0.0
10
-226.33749999999998
20
88.25
10
-226.33749999999998
20
86.75
10
-221.33749999999998
20
86.75
10
-221.33749999999998
20
88.250000000000014
10
-217.33750000000001
20
88.25
42
0.4142135623730846
10
-216.83750000000003
20
88.75
10
-216.83750000000003
20
101.75
42
0.4142135623730846
10
-217.33750000000001
20
102.25000000000001
10
-221.33749999999998
20
102.25000000000001
10
-221.33749999999998
20
103.75
10
-226.33749999999998
20
103.75
10
-226.33749999999998
20
102.25000000000001
10
-230.33750000000001
20
102.25000000000001
42
0.41421356237307422
10
-230.83750000000006
20
101.75
10
-230.83750000000006
20
88.75
42
0.41421356237310542
10
-230.33750000000001
20
88.250000000000014
0
LWPOLYLINE
5
133
100
AcDbEntity
8
0
100
AcDbPolyline
90
16
70
1
43
0.0
10
-216.8125
20
69.200000000000003
10
-216.8125
20
67.699999999999989
10
-211.8125
20
67.700000000000003
10
-211.8125
20
69.200000000000003
10
-207.8125
20
69.200000000000003
42
0.41421356237304818
10
-207.31250000000003
20
69.700000000000003
10
-207.31250000000003
20
82.700000000000017
42
0.41421356237307422
10
-207.8125
20
83.200000000000017
10
-211.8125
20
83.200000000000003
10
-211.8125
20
84.699999999999989
10
-216.8125
20
84.700000000000003
10
-216.8125
20
83.200000000000003
10
-220.81250000000006
20
83.200000000000003
42
0.41421356237310542
10
-221.3125
20
82.700000000000017
10
-221.3125
20
69.700000000000003
42
0.41421356237316787
10
-220.8125
20
69.200000000000003
0
LWPOLYLINE
5
134
100
AcDbEntity
8
0
100
AcDbPolyline
90
16
70
1
43
0.0
10
-183.47499999999999
20
31.100000000000001
10
-183.47499999999999
20
29.600000000000001
10
-178.47499999999999
20
29.600000000000001
10
-178.47499999999999
20
31.100000000000001
10
-174.47500000000005
20
31.100000000000016
42
0.41421356237312623
10
-173.97500000000005
20
31.600000000000001
10
-173.97500000000002
20
44.600000000000001
42
0.4142135623730846
10
-174.47500000000005
20
45.100000000000009
10
-178.47499999999999
20
45.099999999999994
10
-178.47499999999999
20
46.600000000000001
10
-183.47499999999999
20
46.600000000000001
10
-183.47499999999999
20
45.099999999999994
10
-187.47499999999999
20
45.100000000000016
42
0.41421356237311063
10
-187.97499999999999
20
44.600000000000001
10
-187.97499999999999
20
31.600000000000001
42
0.41421356237314444
10
-187.47499999999999
20
31.099999999999994
0
LWPOLYLINE
5
135
100
AcDbEntity
8
0
100
AcDbPolyline
90
16
70
1
43
0.0
10
-164.42500000000001
20
31.100000000000001
10
-164.42500000000001
20
29.600000000000001
10
-159.42500000000001
20
29.600000000000001
10
-159.42500000000001
20
31.100000000000001
10
-155.42500000000001
20
31.099999999999998
42
0.41421356237308982
10
-154.92500000000004
20
31.600000000000001
10
-154.92500000000001
20
44.600000000000001
42
0.41421356237305862
10
-155.42500000000001
20
45.100000000000009
10
-159.42500000000001
20
45.099999999999994
10
-159.42500000000001
20
46.600000000000001
10
-164.42500000000001
20
46.600000000000001
10
-164.42500000000001
20
45.099999999999994
10
-168.42500000000001
20
45.09999999999998
42
0.41421356237314705
10
-168.92500000000001
20
44.600000000000001
10
-168.92500000000001
20
31.600000000000001
42
0.41421356237302737
10
-168.42500000000001
20
31.099999999999994
0
LWPOLYLINE
5
136
100
AcDbEntity
8
0
100
AcDbPolyline
90
16
70
1
43
0.0
10
-182.71250000000006
20
69.200000000000003
10
-178.71250000000001
20
69.200000000000003
10
-178.71250000000001
20
67.699999999999989
10
-173.71250000000001
20
67.700000000000003
10
-173.71250000000001
20
69.200000000000003
10
-169.71250000000001
20
69.199999999999989
42
0.41421356237311585
10
-169.21250000000001
20
69.700000000000003
10
-169.21250000000001
20
82.700000000000017
42
0.41421356237314705
10
-169.71250000000001
20
83.200000000000017
10
-173.71250000000001
20
83.200000000000003
10
-173.71250000000001
20
84.699999999999989
10
-178.71250000000001
20
84.700000000000003
10
-178.71250000000001
20
83.200000000000003
10
-182.71250000000006
20
83.199999999999989
42
0.41421356237311585
10
-183.21250000000003
20
82.700000000000017
10
-183.21250000000003
20
69.700000000000003
42
0.41421356237309503
0
LWPOLYLINE
5
137
100
AcDbEntity
8
0
100
AcDbPolyline
90
16
70
1
43
0.0
10
-221.57500000000002
20
31.100000000000001
10
-221.57500000000002
20
29.600000000000001
10
-216.57500000000002
20
29.600000000000001
10
-216.57500000000002
20
31.100000000000001
10
-212.57499999999999
20
31.100000000000016
42
0.41421356237312623
10
-212.07499999999999
20
31.600000000000001
10
-212.07499999999996
20
44.600000000000001
42
0.4142135623730846
10
-212.57499999999999
20
45.100000000000009
10
-216.57500000000002
20
45.099999999999994
10
-216.57500000000002
20
46.600000000000001
10
-221.57500000000002
20
46.600000000000001
10
-221.57500000000002
20
45.099999999999994
10
-225.57500000000002
20
45.100000000000016
42
0.41421356237311063
10
-226.07500000000002
20
44.600000000000001
10
-226.07500000000002
20
31.600000000000001
42
0.41421356237314444
10
-225.57500000000002
20
31.099999999999994
0
CIRCLE
5
138
100
AcDbEntity
8
0
100
AcDbCircle
10
-219.07499999999999
20
127.87500000000014
30
0
40
1.4999999999999858
0
LWPOLYLINE
5
139
100
AcDbEntity
8
0
100
AcDbPolyline
90
16
70
1
43
0.0
10
-202.52500000000001
20
31.100000000000001
10
-202.52500000000001
20
29.600000000000001
10
-197.52500000000001
20
29.600000000000001
10
-197.52500000000001
20
31.100000000000001
10
-193.52500000000006
20
31.100000000000016
42
0.41421356237312623
10
-193.02500000000006
20
31.600000000000001
10
-193.02500000000003
20
44.600000000000001
42
0.4142135623730846
10
-193.52500000000006
20
45.100000000000009
10
-197.52500000000001
20
45.099999999999994
10
-197.52500000000001
20
46.600000000000001
10
-202.52500000000001
20
46.600000000000001
10
-202.52500000000001
20
45.099999999999994
10
-206.52500000000003
20
45.09999999999998
42
0.41421356237314705
10
-207.02500000000003
20
44.600000000000001
10
-207.02500000000001
20
31.600000000000001
42
0.41421356237307944
10
-206.52500000000003
20
31.099999999999994
0
LWPOLYLINE
5
140
100
AcDbEntity
8
0
100
AcDbPolyline
90
16
70
1
43
0.0
10
-235.86250000000001
20
69.200000000000003
10
-235.86250000000001
20
67.699999999999989
10
-230.86250000000001
20
67.700000000000003
10
-230.86250000000001
20
69.200000000000003
10
-226.86250000000001
20
69.200000000000003
42
0.41421356237304818
10
-226.36250000000004
20
69.700000000000003
10
-226.36250000000004
20
82.700000000000017
42
0.41421356237307422
10
-226.86250000000001
20
83.200000000000017
10
-230.86250000000001
20
83.200000000000003
10
-230.86250000000001
20
84.699999999999989
10
-235.86250000000001
20
84.700000000000003
10
-235.86250000000001
20
83.200000000000003
10
-239.86250000000007
20
83.200000000000003
42
0.41421356237310542
10
-240.36250000000001
20
82.700000000000017
10
-240.36250000000001
20
69.700000000000003
42
0.41421356237316787
10
-239.86250000000001
20
69.200000000000003
0
CIRCLE
5
141
100
AcDbEntity
8
0
100
AcDbCircle
10
-66.675000000000011
20
127.87500000000001
30
0
40
1.5000000000000036
0
LWPOLYLINE
5
142
100
AcDbEntity
8
0
100
AcDbPolyline
90
16
70
1
43
0.0
10
-259.67500000000001
20
31.100000000000001
10
-259.67500000000001
20
29.600000000000001
10
-254.67500000000001
20
29.600000000000001
10
-254.67500000000001
20
31.100000000000001
10
-250.67500000000001
20
31.100000000000016
42
0.41421356237312623
10
-250.17500000000001
20
31.600000000000001
10
-250.17499999999998
20
44.600000000000001
42
0.4142135623730846
10
-250.67500000000001
20
45.100000000000009
10
-254.67500000000001
20
45.099999999999994
10
-254.67500000000001
20
46.600000000000001
10
-259.67500000000001
20
46.600000000000001
10
-259.67500000000001
20
45.099999999999994
10
-263.67500000000001
20
45.100000000000009
42
0.41421356237307422
10
-264.17500000000007
20
44.600000000000001
10
-264.17500000000007
20
31.600000000000001
42
0.41421356237310542
10
-263.67500000000001
20
31.099999999999994
0
LWPOLYLINE
5
143
100
AcDbEntity
8
0
100
AcDbPolyline
90
16
70
1
43
0.0
10
-211.81250000000003
20
16.524999999999999
10
-211.81250000000003
20
18.025000000000002
10
-216.81250000000003
20
18.025000000000002
10
-216.81250000000003
20
16.524999999999999
10
-220.8125
20
16.52500000000002
42
0.41421356237311452
10
-221.3125
20
16.024999999999999
10
-221.3125
20
3.0249999999999999
42
0.41421356237314771
10
-220.8125
20
2.524999999999995
10
-216.81250000000003
20
2.5250000000000039
10
-216.81250000000003
20
1.0250000000000004
10
-211.81250000000003
20
1.0250000000000004
10
-211.81250000000003
20
2.5250000000000039
10
-207.8125
20
2.5249999999999941
42
0.41421356237305373
10
-207.31250000000003
20
3.0250000000000021
10
-207.31250000000003
20
16.024999999999999
42
0.41421356237307944
10
-207.8125
20
16.525000000000006
0
LWPOLYLINE
5
144
100
AcDbEntity
8
0
100
AcDbPolyline
90
16
70
1
43
0.0
10
-130.82499999999999
20
44.600000000000001
42
-0.41421356237309503
10
-130.32499999999999
20
45.100000000000009
10
-126.325
20
45.099999999999994
10
-126.325
20
46.600000000000001
10
-121.325
20
46.600000000000001
10
-121.325
20
45.099999999999994
10
-117.32500000000002
20
45.099999999999987
42
-0.41421356237311585
10
-116.82500000000003
20
44.600000000000001
10
-116.82500000000003
20
31.600000000000001
42
-0.4142135623730378
10
-117.32500000000002
20
31.100000000000001
10
-121.325
20
31.100000000000001
10
-121.325
20
29.600000000000001
10
-126.325
20
29.600000000000001
10
-126.325
20
31.100000000000001
10
-130.32499999999999
20
31.100000000000012
42
-0.41421356237310542
10
-130.82499999999999
20
31.600000000000001
0
LWPOLYLINE
5
145
100
AcDbEntity
8
0
100
AcDbPolyline
90
16
70
1
43
0.0
10
-78.4375
20
101.75
42
-0.41421356237308982
10
-77.9375
20
102.25000000000001
10
-73.9375
20
102.25000000000001
10
-73.9375
20
103.75
10
-68.9375
20
103.75
10
-68.9375
20
102.25000000000001
10
-64.9375
20
102.25000000000001
42
-0.41421356237312623
10
-64.4375
20
101.75
10
-64.4375
20
88.75
42
-0.41421356237314189
10
-64.9375
20
88.250000000000014
10
-68.9375
20
88.250000000000014
10
-68.9375
20
86.75
10
-73.9375
20
86.75
10
-73.9375
20
88.25
10
-77.937500000000014
20
88.250000000000014
42
-0.4142135623730534
10
-78.4375
20
88.75
0
LWPOLYLINE
5
146
100
AcDbEntity
8
0
100
AcDbPolyline
90
16
70
1
43
0.0
10
-73.674999999999983
20
44.600000000000001
42
-0.41421356237310025
10
-73.174999999999983
20
45.100000000000009
10
-69.175000000000011
20
45.099999999999994
10
-69.175000000000011
20
46.600000000000001
10
-64.175000000000011
20
46.600000000000001
10
-64.175000000000011
20
45.099999999999994
10
-60.174999999999997
20
45.100000000000009
42
-0.41421356237310025
10
-59.675000000000004
20
44.600000000000001
10
-59.675000000000011
20
31.600000000000001
42
-0.41421356237310281
10
-60.174999999999997
20
31.100000000000001
10
-64.175000000000011
20
31.100000000000001
10
-64.175000000000011
20
29.600000000000001
10
-69.175000000000011
20
29.600000000000001
10
-69.175000000000011
20
31.100000000000001
10
-73.174999999999983
20
31.099999999999998
42
-0.41421356237309764
10
-73.674999999999983
20
31.600000000000001
0
LWPOLYLINE
5
147
100
AcDbEntity
8
0
100
AcDbPolyline
90
16
70
1
43
0.0
10
-150.13749999999999
20
102.25000000000001
10
-154.13749999999999
20
102.25000000000001
42
0.41421356237314705
10
-154.63749999999999
20
101.75
10
-154.63750000000005
20
88.75
42
0.41421356237309503
10
-154.13749999999999
20
88.25
10
-150.13749999999999
20
88.25
10
-150.13749999999999
20
86.75
10
-145.13749999999999
20
86.75
10
-145.13749999999999
20
88.250000000000014
10
-141.13749999999999
20
88.250000000000014
42
0.41421356237314705
10
-140.63749999999999
20
88.75
10
-140.63749999999999
20
101.75
42
0.41421356237309503
10
-141.13749999999999
20
102.25000000000001
10
-145.13749999999999
20
102.25000000000001
10
-145.13749999999999
20
103.75
10
-150.13749999999999
20
103.75
0
LWPOLYLINE
5
148
100
AcDbEntity
8
0
100
AcDbPolyline
90
16
70
1
43
0.0
10
-92.725000000000065
20
44.600000000000001
42
-0.41421356237311585
10
-92.22499999999998
20
45.100000000000009
10
-88.225000000000023
20
45.099999999999994
10
-88.225000000000023
20
46.600000000000001
10
-83.225000000000023
20
46.600000000000001
10
-83.225000000000023
20
45.099999999999994
10
-79.224999999999994
20
45.099999999999994
42
-0.41421356237310025
10
-78.724999999999994
20
44.600000000000001
10
-78.724999999999994
20
31.600000000000001
42
-0.41421356237309243
10
-79.22499999999998
20
31.100000000000001
10
-83.225000000000023
20
31.100000000000001
10
-83.225000000000023
20
29.600000000000001
10
-88.225000000000023
20
29.600000000000001
10
-88.225000000000023
20
31.100000000000001
10
-92.224999999999994
20
31.100000000000001
42
-0.41421356237310025
10
-92.725000000000023
20
31.600000000000001
0
LWPOLYLINE
5
149
100
AcDbEntity
8
0
100
AcDbPolyline
90
16
70
1
43
0.0
10
-131.08750000000001
20
102.25000000000001
10
-135.08750000000001
20
102.25000000000001
42
0.41421356237307422
10
-135.58750000000001
20
101.75
10
-135.58750000000001
20
88.75
42
0.4142135623730222
10
-135.08750000000001
20
88.250000000000014
10
-131.08750000000001
20
88.25
10
-131.08750000000001
20
86.75
10
-126.08750000000001
20
86.75
10
-126.08750000000001
20
88.250000000000014
10
-122.08750000000002
20
88.250000000000014
42
0.41421356237314705
10
-121.58750000000001
20
88.75
10
-121.58750000000001
20
101.75
42
0.41421356237309503
10
-122.08750000000002
20
102.25000000000001
10
-126.08750000000001
20
102.25000000000001
10
-126.08750000000001
20
103.75
10
-131.08750000000001
20
103.75
0
LWPOLYLINE
5
150
100
AcDbEntity
8
0
100
AcDbPolyline
90
16
70
1
43
0.0
10
-87.46250000000002
20
69.200000000000003
10
-83.462499999999991
20
69.200000000000003
10
-83.462499999999991
20
67.699999999999989
10
-78.462499999999991
20
67.700000000000003
10
-78.462499999999991
20
69.200000000000003
10
-74.462500000000006
20
69.200000000000003
42
0.41421356237310542
10
-73.96250000000002
20
69.700000000000003
10
-73.962500000000006
20
82.700000000000017
42
0.41421356237311063
10
-74.462500000000006
20
83.200000000000003
10
-78.462499999999991
20
83.200000000000003
10
-78.462499999999991
20
84.699999999999989
10
-83.462499999999991
20
84.700000000000003
10
-83.462499999999991
20
83.200000000000003
10
-87.46250000000002
20
83.200000000000017
42
0.4142135623730534
10
-87.96250000000002
20
82.700000000000017
10
-87.962500000000006
20
69.700000000000003
42
0.41421356237307944
0
LWPOLYLINE
5
151
100
AcDbEntity
8
0
100
AcDbPolyline
90
16
70
1
43
0.0
10
-73.9375
20
2.524999999999995
10
-73.9375
20
1.0250000000000004
10
-68.9375
20
1.0250000000000004
10
-68.9375
20
2.524999999999995
10
-64.9375
20
2.524999999999999
42
0.41421356237309859
10
-64.437500000000014
20
3.0250000000000021
10
-64.437500000000014
20
16.024999999999999
42
0.41421356237310281
10
-64.9375
20
16.524999999999999
10
-68.9375
20
16.525000000000002
10
-68.9375
20
18.025000000000002
10
-73.9375
20
18.025000000000002
10
-73.9375
20
16.525000000000002
10
-77.9375
20
16.524999999999991
42
0.41421356237310153
10
-78.4375
20
16.024999999999999
10
-78.4375
20
3.0249999999999999
42
0.41421356237306739
10
-77.937500000000014
20
2.5250000000000039
0
LWPOLYLINE
5
152
100
AcDbEntity
8
0
100
AcDbPolyline
90
16
70
1
43
0.0
10
-49.362500000000004
20
69.200000000000003
10
-45.362499999999997
20
69.200000000000003
10
-45.362499999999997
20
67.699999999999989
10
-40.362500000000082
20
67.699999999999946
10
-40.362500000000082
20
69.199999999999946
10
-36.362499999999997
20
69.200000000000003
42
0.41421356237310802
10
-35.862500000000011
20
69.700000000000003
10
-35.862500000000004
20
82.700000000000017
42
0.41421356237305862
10
-36.362499999999997
20
83.200000000000003
10
-40.362499999999997
20
83.200000000000003
10
-40.362499999999997
20
84.699999999999989
10
-45.362499999999997
20
84.700000000000003
10
-45.362499999999997
20
83.200000000000003
10
-49.362500000000004
20
83.200000000000003
42
0.41421356237308982
10
-49.862500000000018
20
82.700000000000017
10
-49.862499999999997
20
69.700000000000003
42
0.41421356237309503
0
LWPOLYLINE
5
153
100
AcDbEntity
8
0
100
AcDbPolyline
90
16
70
1
43
0.0
10
-240.625
20
31.100000000000001
10
-240.625
20
29.600000000000001
10
-235.625
20
29.600000000000001
10
-235.625
20
31.100000000000001
10
-231.625
20
31.100000000000016
42
0.41421356237312623
10
-231.125
20
31.600000000000001
10
-231.12499999999997
20
44.600000000000001
42
0.4142135623730846
10
-231.625
20
45.100000000000009
10
-235.625
20
45.099999999999994
10
-235.625
20
46.600000000000001
10
-240.625
20
46.600000000000001
10
-240.625
20
45.099999999999994
10
-244.62500000000006
20
45.100000000000044
42
0.4142135623730534
10
-245.12500000000003
20
44.600000000000001
10
-245.12500000000003
20
31.600000000000001
42
0.41421356237307944
10
-244.62500000000006
20
31.099999999999994
0
CIRCLE
5
154
100
AcDbEntity
8
0
100
AcDbCircle
10
-219.07499999999999
20
-4.05000000000011
30
0
40
1.4999999999999858
0
LWPOLYLINE
5
155
100
AcDbEntity
8
0
100
AcDbPolyline
90
54
70
1
43
0.0
10
-12.993250000000069
20
105.8
10
-12.993250000000069
20
104.61999999999998
10
-29.869249999999958
20
104.61999999999998
10
-29.869249999999958
20
105.61999999999998
10
-35.600000000000009
20
105.61999999999998
10
-35.600000000000001
20
107.30000000000001
10
-31.600000000000001
20
107.30000000000001
42
0.41421356237309243
10
-31.099999999999994
20
107.80000000000001
10
-31.100000000000001
20
120.80000000000001
42
0.4142135623730846
10
-31.600000000000001
20
121.29999999999998
10
-35.600000000000001
20
121.30000000000001
10
-35.600000000000001
20
122.8
10
-40.600000000000009
20
122.8
10
-40.600000000000009
20
121.30000000000001
10
-44.600000000000001
20
121.30000000000001
42
0.41421356237305862
10
-45.100000000000009
20
120.8
10
-45.100000000000009
20
107.80000000000001
42
0.41421356237309503
10
-44.600000000000001
20
107.30000000000001
10
-40.600000000000009
20
107.29999999999998
10
-40.600000000000009
20
105.8
10
-36.869249999999987
20
105.8
10
-36.869249999999987
20
86.619999999999976
10
-29.869249999999958
20
86.619999999999976
10
-29.869249999999958
20
100.61999999999998
10
-28.431249999999999
20
100.61999999999998
10
-28.431250000000002
20
88.75
42
0.41421356237304302
10
-27.931249999999999
20
88.250000000000014
10
-23.931249999999995
20
88.25
10
-23.931249999999995
20
86.75
10
-18.931249999999995
20
86.75
10
-18.931249999999995
20
88.250000000000014
10
-14.93125
20
88.250000000000014
42
0.41421356237312101
10
-14.431250000000004
20
88.75
10
-14.431249999999991
20
100.61999999999998
10
-12.993250000000069
20
100.61999999999998
10
-12.993250000000069
20
86.619999999999976
10
-5.9932500000000406
20
86.619999999999976
10
-5.9932500000000406
20
105.61999999999998
10
-11.787500000000001
20
105.61999999999998
10
-11.7875
20
107.30000000000001
10
-7.7875000000000005
20
107.30000000000001
42
0.4142135623730937
10
-7.2874999999999934
20
107.80000000000001
10
-7.2874999999999925
20
120.8
42
0.41421356237305795
10
-7.7875000000000005
20
121.30000000000001
10
-11.7875
20
121.30000000000001
10
-11.7875
20
122.8
10
-16.787500000000001
20
122.8
10
-16.787500000000001
20
121.30000000000001
10
-20.787500000000001
20
121.30000000000001
42
0.41421356237305862
10
-21.287500000000009
20
120.8
10
-21.287499999999994
20
107.80000000000001
42
0.41421356237310542
10
-20.787500000000001
20
107.30000000000001
10
-16.787500000000001
20
107.29999999999998
10
-16.787500000000012
20
105.8
0
LWPOLYLINE
5
156
100
AcDbEntity
8
0
100
AcDbPolyline
90
16
70
1
43
0.0
10
-64.412499999999994
20
83.200000000000003
10
-68.412500000000009
20
83.200000000000017
42
0.4142135623730534
10
-68.912499999999994
20
82.700000000000031
10
-68.912499999999994
20
69.700000000000003
42
0.41421356237308982
10
-68.412500000000009
20
69.200000000000003
10
-64.412499999999994
20
69.200000000000003
10
-64.412499999999994
20
67.699999999999989
10
-59.412500000000001
20
67.700000000000003
10
-59.412500000000001
20
69.200000000000003
10
-55.412500000000016
20
69.200000000000003
42
0.41421356237308982
10
-54.912500000000009
20
69.700000000000003
10
-54.912500000000009
20
82.700000000000017
42
0.41421356237311063
10
-55.412500000000016
20
83.200000000000003
10
-59.412500000000001
20
83.200000000000003
10
-59.412500000000001
20
84.699999999999989
10
-64.412499999999994
20
84.700000000000003
0
LWPOLYLINE
5
157
100
AcDbEntity
8
0
100
AcDbPolyline
90
16
70
1
43
0.0
10
-169.1875
20
88.25
10
-169.1875
20
86.75
10
-164.1875
20
86.75
10
-164.1875
20
88.250000000000014
10
-160.18749999999997
20
88.250000000000014
42
0.41421356237310542
10
-159.6875
20
88.75
10
-159.6875
20
101.75
42
0.41421356237309503
10
-160.1875
20
102.25000000000001
10
-164.1875
20
102.25000000000001
10
-164.1875
20
103.75
10
-169.1875
20
103.75
10
-169.1875
20
102.25000000000001
10
-173.18749999999997
20
102.25000000000003
42
0.4142135623730846
10
-173.68750000000003
20
101.75
10
-173.6875
20
88.75
42
0.41421356237307422
10
-173.1875
20
88.250000000000014
0
LWPOLYLINE
5
158
100
AcDbEntity
8
0
100
AcDbPolyline
90
16
70
1
43
0.0
10
-54.887500000000017
20
88.25
10
-54.887500000000017
20
86.75
10
-49.887499999999363
20
86.750000000000384
10
-49.887499999999349
20
88.250000000000384
10
-45.887500000000003
20
88.250000000000014
42
0.41421356237305862
10
-45.387500000000003
20
88.75
10
-45.387500000000003
20
101.75000000000003
42
0.4142135623730846
10
-45.887500000000003
20
102.25000000000001
10
-49.887500000000017
20
102.25000000000001
10
-49.887500000000017
20
103.75
10
-54.887500000000017
20
103.75
10
-54.887500000000017
20
102.25000000000001
10
-58.887500000000017
20
102.25000000000001
42
0.41421356237310025
10
-59.387500000000024
20
101.75
10
-59.387499999999996
20
88.749999999999986
42
0.41421356237309503
10
-58.887500000000017
20
88.250000000000014
0
LWPOLYLINE
5
159
100
AcDbEntity
8
0
100
AcDbPolyline
90
16
70
1
43
0.0
10
-159.66249999999999
20
69.200000000000003
10
-159.66249999999999
20
67.699999999999989
10
-154.66249999999999
20
67.700000000000003
10
-154.66249999999999
20
69.200000000000003
10
-150.66249999999999
20
69.200000000000003
42
0.41421356237312101
10
-150.16249999999999
20
69.700000000000003
10
-150.16249999999999
20
82.700000000000017
42
0.41421356237307422
10
-150.66249999999999
20
83.200000000000017
10
-154.66249999999999
20
83.200000000000003
10
-154.66249999999999
20
84.699999999999989
10
-159.66249999999999
20
84.700000000000003
10
-159.66249999999999
20
83.200000000000003
10
-163.66250000000008
20
83.200000000000003
42
0.41421356237310542
10
-164.16250000000005
20
82.700000000000017
10
-164.16250000000005
20
69.700000000000003
42
0.41421356237316787
10
-163.66250000000005
20
69.200000000000003
0
LWPOLYLINE
5
160
100
AcDbEntity
8
0
100
AcDbPolyline
90
16
70
1
43
0.0
10
-121.5625
20
69.200000000000003
10
-121.5625
20
67.699999999999989
10
-116.5625
20
67.700000000000003
10
-116.5625
20
69.200000000000003
10
-112.56250000000001
20
69.200000000000003
42
0.41421356237312101
10
-112.0625
20
69.700000000000003
10
-112.0625
20
82.700000000000017
42
0.41421356237307422
10
-112.56250000000001
20
83.200000000000017
10
-116.5625
20
83.200000000000003
10
-116.5625
20
84.699999999999989
10
-121.5625
20
84.700000000000003
10
-121.5625
20
83.200000000000003
10
-125.5625
20
83.200000000000017
42
0.4142135623730534
10
-126.06250000000001
20
82.700000000000017
10
-126.0625
20
69.700000000000003
42
0.41421356237307944
10
-125.5625
20
69.200000000000003
0
LWPOLYLINE
5
161
100
AcDbEntity
8
0
100
AcDbPolyline
90
16
70
1
43
0.0
10
-201.76249999999999
20
69.200000000000003
10
-197.76249999999999
20
69.200000000000003
10
-197.76249999999999
20
67.699999999999989
10
-192.76249999999999
20
67.700000000000003
10
-192.76249999999999
20
69.200000000000003
10
-188.76249999999999
20
69.200000000000003
42
0.41421356237313145
10
-188.26249999999999
20
69.700000000000003
10
-188.26249999999993
20
82.700000000000017
42
0.4142135623730846
10
-188.76249999999999
20
83.200000000000017
10
-192.76249999999999
20
83.200000000000003
10
-192.76249999999999
20
84.699999999999989
10
-197.76249999999999
20
84.700000000000003
10
-197.76249999999999
20
83.200000000000003
10
-201.76250000000005
20
83.200000000000003
42
0.41421356237310542
10
-202.26249999999999
20
82.700000000000017
10
-202.26249999999999
20
69.700000000000003
42
0.41421356237316787
0
LWPOLYLINE
5
162
100
AcDbEntity
8
0
100
AcDbPolyline
90
16
70
1
43
0.0
10
-121.29999999999998
20
16.024999999999999
42
-0.41421356237305862
10
-120.8
20
16.525000000000002
10
-116.8
20
16.525000000000002
10
-116.8
20
18.025000000000002
10
-111.8
20
18.025000000000002
10
-111.8
20
16.525000000000002
10
-107.80000000000001
20
16.525000000000009
42
-0.41421356237309631
10
-107.30000000000001
20
16.024999999999999
10
-107.29999999999998
20
3.0250000000000021
42
-0.41421356237310575
10
-107.80000000000001
20
2.5249999999999999
10
-111.8
20
2.524999999999995
10
-111.8
20
1.0250000000000004
10
-116.8
20
1.0250000000000004
10
-116.8
20
2.524999999999995
10
-120.8
20
2.5249999999999853
42
-0.41421356237305795
10
-121.30000000000001
20
3.0249999999999999
0
LWPOLYLINE
5
163
100
AcDbEntity
8
0
100
AcDbPolyline
90
16
70
1
43
0.0
10
-54.887500000000003
20
2.524999999999995
10
-54.887500000000003
20
1.0250000000000004
10
-49.887500000000003
20
1.0250000000000004
10
-49.887500000000003
20
2.524999999999995
10
-45.887499999999989
20
2.5249999999999972
42
0.41421356237307616
10
-45.387500000000003
20
3.0250000000000021
10
-45.387500000000003
20
16.024999999999999
42
0.41421356237307033
10
-45.887500000000003
20
16.524999999999999
10
-49.887500000000003
20
16.525000000000002
10
-49.887500000000003
20
18.025000000000002
10
-54.887500000000003
20
18.025000000000002
10
-54.887500000000003
20
16.525000000000002
10
-58.887500000000024
20
16.525000000000002
42
0.41421356237309764
10
-59.387500000000003
20
16.024999999999999
10
-59.387500000000003
20
3.0249999999999999
42
0.41421356237311063
10
-58.887500000000017
20
2.5250000000000039
0
LWPOLYLINE
5
164
100
AcDbEntity
8
0
100
AcDbPolyline
90
16
70
1
43
0.0
10
-278.46249999999998
20
120.8
42
-0.41421356237307422
10
-277.96249999999998
20
121.30000000000001
10
-273.96249999999998
20
121.30000000000001
10
-273.96249999999998
20
122.8
10
-268.96249999999998
20
122.8
10
-268.96249999999998
20
121.30000000000001
10
-264.96249999999998
20
121.30000000000001
42
-0.41421356237309503
10
-264.46249999999998
20
120.8
10
-264.46249999999998
20
107.80000000000001
42
-0.41421356237314705
10
-264.96249999999998
20
107.30000000000001
10
-268.96249999999998
20
107.30000000000001
10
-268.96249999999998
20
105.8
10
-273.96249999999998
20
105.8
10
-273.96249999999998
20
107.29999999999998
10
-277.96249999999998
20
107.29999999999997
42
-0.4142135623730534
10
-278.46250000000003
20
107.80000000000001
0
LWPOLYLINE
5
165
100
AcDbEntity
8
0
100
AcDbPolyline
90
16
70
1
43
0.0
10
-50.125000000000014
20
31.100000000000001
10
-50.125000000000014
20
29.600000000000001
10
-45.125000000000014
20
29.600000000000001
10
-45.125000000000014
20
31.100000000000001
10
-41.124999999999986
20
31.100000000000009
42
0.41421356237308721
10
-40.625
20
31.600000000000001
10
-40.625
20
44.600000000000001
42
0.41421356237307944
10
-41.125
20
45.100000000000009
10
-45.125000000000014
20
45.099999999999994
10
-45.125000000000014
20
46.600000000000001
10
-50.125000000000014
20
46.600000000000001
10
-50.125000000000014
20
45.099999999999994
10
-54.125000000000014
20
45.100000000000009
42
0.41421356237309503
10
-54.625
20
44.600000000000001
10
-54.625
20
31.600000000000001
42
0.41421356237311063
10
-54.125000000000014
20
31.100000000000001
0
LWPOLYLINE
5
166
100
AcDbEntity
8
0
100
AcDbPolyline
90
16
70
1
43
0.0
10
-64.412499999999994
20
107.29999999999998
10
-64.412499999999994
20
105.8
10
-59.412500000000001
20
105.8
10
-59.412500000000001
20
107.30000000000001
10
-55.412500000000016
20
107.30000000000001
42
0.41421356237310025
10
-54.912500000000009
20
107.80000000000001
10
-54.912500000000001
20
120.80000000000001
42
0.41421356237307422
10
-55.412500000000016
20
121.29999999999998
10
-59.412500000000001
20
121.30000000000001
10
-59.412500000000001
20
122.8
10
-64.412499999999994
20
122.8
10
-64.412499999999994
20
121.30000000000001
10
-68.412499999999994
20
121.29999999999998
42
0.41421356237308982
10
-68.912500000000009
20
120.8
10
-68.912499999999994
20
107.8
42
0.41421356237307944
10
-68.412500000000009
20
107.30000000000001
0
LWPOLYLINE
5
167
100
AcDbEntity
8
0
100
AcDbPolyline
90
16
70
1
43
0.0
10
-102.51249999999999
20
69.200000000000003
10
-102.51249999999999
20
67.699999999999989
10
-97.512499999999989
20
67.700000000000003
10
-97.512499999999989
20
69.200000000000003
10
-93.512500000000003
20
69.200000000000003
42
0.41421356237314189
10
-93.012500000000017
20
69.700000000000003
10
-93.012500000000017
20
82.700000000000017
42
0.4142135623730222
10
-93.512500000000003
20
83.200000000000017
10
-97.512499999999989
20
83.200000000000003
10
-97.512499999999989
20
84.699999999999989
10
-102.51249999999999
20
84.700000000000003
10
-102.51249999999999
20
83.200000000000003
10
-106.51250000000003
20
83.200000000000017
42
0.4142135623730846
10
-107.01250000000002
20
82.700000000000017
10
-107.01250000000002
20
69.700000000000003
42
0.41421356237307944
10
-106.51250000000003
20
69.200000000000003
0
LWPOLYLINE
5
168
100
AcDbEntity
8
0
100
AcDbPolyline
90
16
70
1
43
0.0
10
-168.95000000000005
20
2.5250000000000039
10
-164.95000000000005
20
2.5250000000000039
42
0.41421356237308005
10
-164.44999999999999
20
3.0250000000000021
10
-164.44999999999999
20
16.024999999999999
42
0.41421356237307422
10
-164.95000000000005
20
16.525000000000006
10
-168.95000000000005
20
16.524999999999999
10
-168.95000000000005
20
18.025000000000002
10
-173.95000000000005
20
18.025000000000002
10
-173.95000000000005
20
16.524999999999999
10
-177.94999999999999
20
16.525000000000002
42
0.41421356237318741
10
-178.44999999999996
20
16.024999999999999
10
-178.44999999999999
20
3.0249999999999999
42
0.414213562373135
10
-177.94999999999999
20
2.5249999999999861
10
-173.95000000000005
20
2.5250000000000039
10
-173.95000000000005
20
1.0250000000000004
10
-168.95000000000005
20
1.0250000000000004
0
LWPOLYLINE
5
169
100
AcDbEntity
8
0
100
AcDbPolyline
90
54
70
1
43
0.0
10
-89.225000000000023
20
108.92999999999999
10
-135.87500000000003
20
108.92999999999999
10
-135.875
20
120.8
42
0.4142135623730534
10
-136.375
20
121.30000000000001
10
-140.375
20
121.30000000000001
10
-140.375
20
122.8
10
-145.375
20
122.8
10
-145.375
20
121.30000000000001
10
-149.375
20
121.30000000000001
42
0.41421356237307422
10
-149.875
20
120.8
10
-149.87500000000003
20
108.92999999999999
10
-196.52500000000001
20
108.92999999999999
10
-196.52500000000001
20
122.92999999999999
10
-203.52500000000003
20
122.92999999999999
10
-203.52499999999998
20
103.75000000000001
10
-207.28749999999997
20
103.75
10
-207.28749999999997
20
102.25000000000001
10
-211.28749999999999
20
102.25000000000001
42
0.41421356237314705
10
-211.78750000000002
20
101.75
10
-211.78750000000002
20
88.75
42
0.41421356237311585
10
-211.28749999999999
20
88.250000000000014
10
-207.28749999999997
20
88.25
10
-207.28749999999997
20
86.75
10
-202.28749999999997
20
86.75
10
-202.28749999999997
20
88.250000000000014
10
-198.28749999999999
20
88.25
42
0.4142135623730846
10
-197.78750000000002
20
88.75
10
-197.78750000000002
20
101.75
42
0.4142135623730846
10
-198.28749999999999
20
102.25000000000001
10
-202.28749999999997
20
102.25000000000001
10
-202.28750000000005
20
103.92999999999999
10
-196.52500000000001
20
103.92999999999999
10
-196.52500000000001
20
104.92999999999998
10
-89.225000000000023
20
104.92999999999998
10
-89.225000000000023
20
103.75000000000001
10
-92.987500000000011
20
103.75
10
-92.987500000000011
20
102.25000000000001
10
-96.987500000000011
20
102.25000000000001
42
0.41421356237309503
10
-97.487500000000011
20
101.75
10
-97.487500000000011
20
88.75
42
0.41421356237314705
10
-96.987500000000011
20
88.250000000000014
10
-92.987500000000011
20
88.25
10
-92.987500000000011
20
86.75
10
-87.987500000000011
20
86.75
10
-87.987500000000011
20
88.250000000000014
10
-83.987499999999983
20
88.250000000000014
42
0.4142135623730534
10
-83.487499999999983
20
88.75
10
-83.487499999999983
20
101.75
42
0.41421356237310542
10
-83.987499999999983
20
102.25000000000001
10
-87.987500000000011
20
102.25000000000001
10
-87.987499999999997
20
103.92999999999999
10
-82.224999999999994
20
103.92999999999999
10
-82.224999999999994
20
122.92999999999999
10
-89.225000000000023
20
122.92999999999999
0
CIRCLE
5
170
100
AcDbEntity
8
0
100
AcDbCircle
10
-28.574999999999999
20
-4.0500000000000007
30
0
40
1.4999999999999991
0
LWPOLYLINE
5
171
100
AcDbEntity
8
0
100
AcDbPolyline
90
16
70
1
43
0.0
10
-178.44999999999999
20
63.65000000000002
42
-0.41421356237317308
10
-177.94999999999999
20
64.150000000000006
10
-173.94999999999999
20
64.15000000000002
10
-173.94999999999999
20
65.65000000000002
10
-168.94999999999999
20
65.650000000000006
10
-168.94999999999999
20
64.150000000000006
10
-164.95000000000005
20
64.150000000000034
42
-0.41421356237307944
10
-164.44999999999999
20
63.65000000000002
10
-164.44999999999999
20
50.650000000000013
42
-0.41421356237318868
10
-164.95000000000005
20
50.150000000000013
10
-168.94999999999999
20
50.15000000000002
10
-168.94999999999999
20
48.65000000000002
10
-173.94999999999999
20
48.650000000000013
10
-173.94999999999999
20
50.150000000000013
10
-177.94999999999999
20
50.14999999999997
42
-0.41421356237311585
10
-178.44999999999999
20
50.650000000000013
0
LWPOLYLINE
5
172
100
AcDbEntity
8
0
100
AcDbPolyline
90
16
70
1
43
0.0
10
-192.99999999999997
20
50.150000000000013
10
-192.99999999999997
20
48.650000000000013
10
-187.99999999999997
20
48.65000000000002
10
-187.99999999999997
20
50.15000000000002
10
-184.00000000000003
20
50.149999999999999
42
0.41421356237311585
10
-183.5
20
50.650000000000013
10
-183.5
20
63.65000000000002
42
0.41421356237317308
10
-184.00000000000003
20
64.150000000000006
10
-187.99999999999997
20
64.150000000000006
10
-187.99999999999997
20
65.650000000000006
10
-192.99999999999997
20
65.65000000000002
10
-192.99999999999997
20
64.15000000000002
10
-197.00000000000006
20
64.150000000000006
42
0.41421356237309503
10
-197.50000000000003
20
63.65000000000002
10
-197.49999999999997
20
50.650000000000013
42
0.41421356237310025
10
-197.00000000000003
20
50.150000000000006
0
LWPOLYLINE
5
173
100
AcDbEntity
8
0
100
AcDbPolyline
90
16
70
1
43
0.0
10
-135.84999999999999
20
50.150000000000013
10
-135.84999999999999
20
48.650000000000013
10
-130.84999999999999
20
48.65000000000002
10
-130.84999999999999
20
50.15000000000002
10
-126.85000000000001
20
50.15000000000002
42
0.4142135623730846
10
-126.35000000000004
20
50.650000000000013
10
-126.34999999999999
20
63.65000000000002
42
0.41421356237306384
10
-126.85000000000001
20
64.150000000000006
10
-130.84999999999999
20
64.150000000000006
10
-130.84999999999999
20
65.650000000000006
10
-135.84999999999999
20
65.65000000000002
10
-135.84999999999999
20
64.15000000000002
10
-139.84999999999999
20
64.150000000000006
42
0.41421356237310542
10
-140.34999999999999
20
63.65000000000002
10
-140.34999999999999
20
50.650000000000013
42
0.41421356237310025
10
-139.84999999999999
20
50.150000000000006
0
CIRCLE
5
174
100
AcDbEntity
8
0
100
AcDbCircle
10
-66.675000000000011
20
-4.0499999999999989
30
0
40
1.5000000000000036
0
LWPOLYLINE
5
175
100
AcDbEntity
8
0
100
AcDbPolyline
90
16
70
1
43
0.0
10
-154.90000000000001
20
64.15000000000002
10
-158.90000000000001
20
64.150000000000006
42
0.4142135623730846
10
-159.40000000000001
20
63.65000000000002
10
-159.40000000000001
20
50.650000000000013
42
0.41421356237312101
10
-158.90000000000001
20
50.150000000000006
10
-154.90000000000001
20
50.150000000000013
10
-154.90000000000001
20
48.650000000000013
10
-149.90000000000001
20
48.65000000000002
10
-149.90000000000001
20
50.15000000000002
10
-145.90000000000001
20
50.150000000000013
42
0.41421356237307944
10
-145.40000000000003
20
50.650000000000013
10
-145.40000000000001
20
63.65000000000002
42
0.41421356237306384
10
-145.90000000000001
20
64.150000000000006
10
-149.90000000000001
20
64.150000000000006
10
-149.90000000000001
20
65.650000000000006
10
-154.90000000000001
20
65.65000000000002
0
LWPOLYLINE
5
176
100
AcDbEntity
8
0
100
AcDbPolyline
90
16
70
1
43
0.0
10
-116.8
20
50.150000000000013
10
-116.8
20
48.650000000000013
10
-111.8
20
48.65000000000002
10
-111.8
20
50.15000000000002
10
-107.80000000000001
20
50.150000000000006
42
0.41421356237312101
10
-107.30000000000001
20
50.650000000000013
10
-107.30000000000001
20
63.65000000000002
42
0.4142135623730846
10
-107.80000000000001
20
64.150000000000006
10
-111.8
20
64.150000000000006
10
-111.8
20
65.650000000000006
10
-116.8
20
65.65000000000002
10
-116.8
20
64.15000000000002
10
-120.8
20
64.150000000000006
42
0.41421356237309503
10
-121.29999999999998
20
63.65000000000002
10
-121.29999999999998
20
50.650000000000013
42
0.41421356237308982
10
-120.8
20
50.150000000000006
0
LWPOLYLINE
5
177
100
AcDbEntity
8
0
100
AcDbPolyline
90
16
70
1
43
0.0
10
-59.649999999999999
20
50.150000000000013
10
-59.649999999999999
20
48.650000000000013
10
-54.649999999999999
20
48.65000000000002
10
-54.649999999999999
20
50.15000000000002
10
-50.650000000000013
20
50.150000000000013
42
0.41421356237310542
10
-50.150000000000013
20
50.650000000000013
10
-50.150000000000013
20
63.65000000000002
42
0.41421356237311063
10
-50.650000000000013
20
64.150000000000006
10
-54.649999999999999
20
64.150000000000006
10
-54.649999999999999
20
65.650000000000006
10
-59.649999999999999
20
65.65000000000002
10
-59.649999999999999
20
64.15000000000002
10
-63.65000000000002
20
64.150000000000006
42
0.41421356237307422
10
-64.150000000000006
20
63.65000000000002
10
-64.150000000000006
20
50.650000000000013
42
0.41421356237311063
10
-63.65000000000002
20
50.150000000000013
0
LWPOLYLINE
5
178
100
AcDbEntity
8
0
100
AcDbPolyline
90
16
70
1
43
0.0
10
-97.75
20
50.150000000000013
10
-97.75
20
48.650000000000013
10
-92.75
20
48.65000000000002
10
-92.75
20
50.15000000000002
10
-88.75
20
50.150000000000013
42
0.41421356237314189
10
-88.250000000000014
20
50.650000000000013
10
-88.25
20
63.65000000000002
42
0.41421356237310542
10
-88.75
20
64.150000000000006
10
-92.75
20
64.150000000000006
10
-92.75
20
65.650000000000006
10
-97.75
20
65.65000000000002
10
-97.75
20
64.15000000000002
10
-101.75
20
64.150000000000006
42
0.41421356237310542
10
-102.25000000000001
20
63.65000000000002
10
-102.25000000000001
20
50.650000000000013
42
0.41421356237310025
10
-101.75
20
50.150000000000006
0
ENDSEC
0
SECTION
2
OBJECTS
0
DICTIONARY
5
C
100
AcDbDictionary
3
ACAD_GROUP
350
D
3
ACAD_MLINESTYLE
350
17
0
DICTIONARY
5
D
100
AcDbDictionary
0
DICTIONARY
5
1A
330
C
100
AcDbDictionary
0
DICTIONARY
5
17
100
AcDbDictionary
0
ENDSEC
0
EOF
