0
SECTION
2
HEADER
9
$INSUNITS
70
4
9
$ACADVER
1
AC1014
9
$HANDSEED
5
FFFF
0
ENDSEC
0
SECTION
2
TABLES
0
TABLE
2
VPORT
5
8
100
AcDbSymbolTable
0
ENDTAB
0
TABLE
2
LTYPE
5
5
100
AcDbSymbolTable
0
LTYPE
5
14
100
AcDbSymbolTableRecord
100
AcDbLinetypeTableRecord
2
BYBLOCK
70
0
0
LTYPE
5
15
100
AcDbSymbolTableRecord
100
AcDbLinetypeTableRecord
2
BYLAYER
70
0
0
ENDTAB
0
TABLE
2
LAYER
5
2
100
AcDbSymbolTable
70
2
0
LAYER
5
50
100
AcDbSymbolTableRecord
100
AcDbLayerTableRecord
2
0
70
0
6
CONTINUOUS
0
ENDTAB
0
TABLE
2
STYLE
5
3
100
AcDbSymbolTable
70
1
0
STYLE
5
11
100
AcDbSymbolTableRecord
100
AcDbTextStyleTableRecord
2
STANDARD
70
0
0
ENDTAB
0
TABLE
2
VIEW
5
6
100
AcDbSymbolTable
70
0
0
ENDTAB
0
TABLE
2
UCS
5
7
100
AcDbSymbolTable
70
0
0
ENDTAB
0
TABLE
2
APPID
5
9
100
AcDbSymbolTable
70
2
0
APPID
5
12
100
AcDbSymbolTableRecord
100
AcDbRegAppTableRecord
2
ACAD
70
0
0
ENDTAB
0
TABLE
2
DIMSTYLE
5
A
100
AcDbSymbolTable
70
1
0
ENDTAB
0
TABLE
2
BLOCK_RECORD
5
1
100
AcDbSymbolTable
70
1
0
BLOCK_RECORD
5
1F
100
AcDbSymbolTableRecord
100
AcDbBlockTableRecord
2
*MODEL_SPACE
0
BLOCK_RECORD
5
1B
100
AcDbSymbolTableRecord
100
AcDbBlockTableRecord
2
*PAPER_SPACE
0
ENDTAB
0
ENDSEC
0
SECTION
2
BLOCKS
0
BLOCK
5
20
100
AcDbEntity
100
AcDbBlockBegin
2
*MODEL_SPACE
0
ENDBLK
5
21
100
AcDbEntity
100
AcDbBlockEnd
0
BLOCK
5
1C
100
AcDbEntity
100
AcDbBlockBegin
2
*PAPER_SPACE
0
ENDBLK
5
1D
100
AcDbEntity
100
AcDbBlockEnd
0
ENDSEC
0
SECTION
2
ENTITIES
0
LWPOLYLINE
5
100
100
AcDbEntity
8
0
100
AcDbPolyline
90
8
70
1
43
0.0
10
-1.4999999999999862
20
173.02499999999998
42
-0.41421356237309881
10
0
20
171.52500000000003
10
-3.3306690738754696e-15
20
1.4999999999999858
42
-0.41421356237308887
10
-1.4999999999999858
20
0
10
-300.82500000000005
20
-6.106226635438361e-15
42
-0.41421356237309626
10
-302.32500000000005
20
1.4999999999999858
10
-302.32500000000005
20
171.52500000000003
42
-0.41421356237310897
10
-300.82500000000005
20
173.02500000000003
0
CIRCLE
5
101
100
AcDbEntity
8
0
100
AcDbCircle
10
-3.0000000000000004
20
170.02500000000001
30
0
40
1.4999999999999947
0
CIRCLE
5
102
100
AcDbEntity
8
0
100
AcDbCircle
10
-299.32499999999999
20
170.02500000000001
30
0
40
1.5000000000000213
0
CIRCLE
5
103
100
AcDbEntity
8
0
100
AcDbCircle
10
-299.32499999999999
20
3.0000000000000004
30
0
40
1.5000000000000213
0
LWPOLYLINE
5
104
100
AcDbEntity
8
0
100
AcDbPolyline
90
8
70
1
43
0.0
10
-7.7625000000000011
20
42.600000000000009
10
-7.7625000000000011
20
59.700000000000003
42
0.41421356237309481
10
-9.2624999999999993
20
61.20000000000001
10
-26.362500000000004
20
61.20000000000001
42
0.41421356237309503
10
-27.862500000000004
20
59.700000000000003
10
-27.862500000000004
20
42.600000000000009
42
0.41421356237309503
10
-26.362500000000004
20
41.100000000000001
10
-9.2624999999999993
20
41.100000000000001
42
0.41421356237309503
0
CIRCLE
5
105
100
AcDbEntity
8
0
100
AcDbCircle
10
-3.0000000000000004
20
3.0000000000000004
30
0
40
1.5000000000000002
0
LWPOLYLINE
5
106
100
AcDbEntity
8
0
100
AcDbPolyline
90
8
70
1
43
0.0
10
-33.075000000000003
20
61.20000000000001
10
-107.32500000000002
20
61.20000000000001
42
0.41421356237309503
10
-108.825
20
59.700000000000003
10
-108.825
20
42.600000000000009
42
0.41421356237309503
10
-107.325
20
41.100000000000001
10
-33.075000000000003
20
41.100000000000001
42
0.41421356237309503
10
-31.575000000000003
20
42.600000000000009
10
-31.575000000000003
20
59.700000000000003
42
0.41421356237309503
0
LWPOLYLINE
5
107
100
AcDbEntity
8
0
100
AcDbPolyline
90
8
70
1
43
0.0
10
-188.28700000000001
20
41.100000000000001
10
-114.03749999999999
20
41.100000000000001
42
0.41421356237309503
10
-112.53749999999999
20
42.600000000000009
10
-112.53749999999999
20
59.700000000000003
42
0.41421356237309503
10
-114.03750000000001
20
61.20000000000001
10
-188.28700000000001
20
61.20000000000001
42
0.41421356237309503
10
-189.78700000000001
20
59.700000000000003
10
-189.78700000000001
20
42.600000000000009
42
0.41421356237309503
0
LWPOLYLINE
5
108
100
AcDbEntity
8
0
100
AcDbPolyline
90
8
70
1
43
0.0
10
-270.74950000000001
20
59.700000000000003
10
-270.74950000000001
20
42.600000000000009
42
0.41421356237309503
10
-269.24950000000001
20
41.100000000000001
10
-194.99949999999998
20
41.100000000000001
42
0.41421356237309503
10
-193.49950000000001
20
42.600000000000009
10
-193.49950000000001
20
59.700000000000003
42
0.41421356237309503
10
-194.99949999999998
20
61.20000000000001
10
-269.24950000000001
20
61.20000000000001
42
0.41421356237309503
0
LWPOLYLINE
5
109
100
AcDbEntity
8
0
100
AcDbPolyline
90
8
70
1
43
0.0
10
-294.56200000000001
20
59.700000000000003
10
-294.56200000000001
20
42.600000000000009
42
0.41421356237309503
10
-293.06200000000001
20
41.100000000000001
10
-275.96199999999999
20
41.100000000000001
42
0.41421356237309503
10
-274.46199999999999
20
42.600000000000009
10
-274.46199999999999
20
59.700000000000003
42
0.41421356237309503
10
-275.96199999999999
20
61.20000000000001
10
-293.06200000000001
20
61.20000000000001
42
0.41421356237309503
0
LWPOLYLINE
5
110
100
AcDbEntity
8
0
100
AcDbPolyline
90
8
70
1
43
0.0
10
-9.2630000000000123
20
165.97500000000008
10
-293.0625
20
165.97500000000008
42
0.41421356237309503
10
-294.5625
20
164.47500000000008
10
-294.5625
20
71.175000000000011
42
0.41421356237309503
10
-293.0625
20
69.675000000000011
10
-9.262999999999991
20
69.674999999999997
42
0.41421356237309337
10
-7.762999999999991
20
71.174999999999997
10
-7.7629999999999946
20
164.47500000000008
42
0.41421356237309853
0
ENDSEC
0
SECTION
2
OBJECTS
0
DICTIONARY
5
C
100
AcDbDictionary
3
ACAD_GROUP
350
D
3
ACAD_MLINESTYLE
350
17
0
DICTIONARY
5
D
100
AcDbDictionary
0
DICTIONARY
5
1A
330
C
100
AcDbDictionary
0
DICTIONARY
5
17
100
AcDbDictionary
0
ENDSEC
0
EOF
