0
SECTION
2
HEADER
9
$INSUNITS
70
4
9
$ACADVER
1
AC1014
9
$HANDSEED
5
FFFF
0
ENDSEC
0
SECTION
2
TABLES
0
TABLE
2
VPORT
5
8
100
AcDbSymbolTable
0
ENDTAB
0
TABLE
2
LTYPE
5
5
100
AcDbSymbolTable
0
LTYPE
5
14
100
AcDbSymbolTableRecord
100
AcDbLinetypeTableRecord
2
BYBLOCK
70
0
0
LTYPE
5
15
100
AcDbSymbolTableRecord
100
AcDbLinetypeTableRecord
2
BYLAYER
70
0
0
ENDTAB
0
TABLE
2
LAYER
5
2
100
AcDbSymbolTable
70
2
0
LAYER
5
50
100
AcDbSymbolTableRecord
100
AcDbLayerTableRecord
2
0
70
0
6
CONTINUOUS
0
ENDTAB
0
TABLE
2
STYLE
5
3
100
AcDbSymbolTable
70
1
0
STYLE
5
11
100
AcDbSymbolTableRecord
100
AcDbTextStyleTableRecord
2
STANDARD
70
0
0
ENDTAB
0
TABLE
2
VIEW
5
6
100
AcDbSymbolTable
70
0
0
ENDTAB
0
TABLE
2
UCS
5
7
100
AcDbSymbolTable
70
0
0
ENDTAB
0
TABLE
2
APPID
5
9
100
AcDbSymbolTable
70
2
0
APPID
5
12
100
AcDbSymbolTableRecord
100
AcDbRegAppTableRecord
2
ACAD
70
0
0
ENDTAB
0
TABLE
2
DIMSTYLE
5
A
100
AcDbSymbolTable
70
1
0
ENDTAB
0
TABLE
2
BLOCK_RECORD
5
1
100
AcDbSymbolTable
70
1
0
BLOCK_RECORD
5
1F
100
AcDbSymbolTableRecord
100
AcDbBlockTableRecord
2
*MODEL_SPACE
0
BLOCK_RECORD
5
1B
100
AcDbSymbolTableRecord
100
AcDbBlockTableRecord
2
*PAPER_SPACE
0
ENDTAB
0
ENDSEC
0
SECTION
2
BLOCKS
0
BLOCK
5
20
100
AcDbEntity
100
AcDbBlockBegin
2
*MODEL_SPACE
0
ENDBLK
5
21
100
AcDbEntity
100
AcDbBlockEnd
0
BLOCK
5
1C
100
AcDbEntity
100
AcDbBlockBegin
2
*PAPER_SPACE
0
ENDBLK
5
1D
100
AcDbEntity
100
AcDbBlockEnd
0
ENDSEC
0
SECTION
2
ENTITIES
0
LWPOLYLINE
5
100
100
AcDbEntity
8
0
100
AcDbPolyline
90
72
70
1
43
0.0
10
0.52500000000000047
20
0.97500000000000053
42
-0.41421356237309515
10
-0.97500000000000142
20
-0.52499999999999969
10
-25.074999999999999
20
-0.52499999999999969
42
0.4142135623730947
10
-25.574999999999996
20
-1.0249999999999992
10
-25.575000000000003
20
-5.5500000000000016
42
-0.41421356237309592
10
-27.074999999999996
20
-7.0500000000000016
10
-30.074999999999996
20
-7.0500000000000052
42
-0.41421356237309592
10
-31.574999999999992
20
-5.5500000000000016
10
-31.574999999999992
20
-1.0250000000000001
42
0.41421356237309515
10
-32.074999999999989
20
-0.52500000000000002
10
-63.175000000000011
20
-0.52500000000000047
42
0.41421356237309503
10
-63.675000000000011
20
-1.0250000000000004
10
-63.675000000000011
20
-5.5500000000000016
42
-0.4142135623730937
10
-65.175000000000011
20
-7.0500000000000007
10
-68.175000000000011
20
-7.0500000000000052
42
-0.41421356237309176
10
-69.675000000000011
20
-5.5500000000000007
10
-69.675000000000011
20
-1.0250000000000001
42
0.41421356237310036
10
-70.175000000000011
20
-0.52500000000000002
10
-215.57499999999999
20
-0.52500000000000036
42
0.41421356237309503
10
-216.07499999999999
20
-1.0250000000000004
10
-216.07499999999999
20
-5.5500000000001091
42
-0.41421356237311369
10
-217.57499999999996
20
-7.0500000000001091
10
-220.57499999999999
20
-7.0500000000001242
42
-0.41421356237309986
10
-222.07499999999996
20
-5.5500000000001135
10
-222.07499999999996
20
-1.0250000000000001
42
0.41421356237309515
10
-222.57499999999996
20
-0.52500000000000002
10
-253.67500000000001
20
-0.52500000000000036
42
0.41421356237309503
10
-254.17500000000001
20
-1.0250000000000004
10
-254.17500000000001
20
-5.5500000000001659
42
-0.41421356237311352
10
-255.67499999999998
20
-7.0500000000001659
10
-258.67500000000001
20
-7.0500000000001792
42
-0.41421356237309959
10
-260.17499999999995
20
-5.5500000000001704
10
-260.17499999999995
20
-1.0250000000000001
42
0.41421356237309515
10
-260.67500000000001
20
-0.52500000000000002
10
-284.77500000000003
20
-0.52500000000000868
42
-0.41421356237311369
10
-286.27500000000003
20
0.97500000000000142
10
-286.27500000000003
20
122.84999999999999
42
-0.41421356237311241
10
-284.77500000000003
20
124.35000000000001
10
-260.67499999999995
20
124.35000000000001
42
0.41421356237309503
10
-260.17499999999995
20
124.85000000000001
10
-260.17499999999995
20
129.37500000000017
42
-0.41421356237309853
10
-258.67500000000001
20
130.87500000000017
10
-255.67500000000001
20
130.87500000000017
42
-0.41421356237311935
10
-254.17500000000001
20
129.37500000000017
10
-254.17500000000001
20
124.85000000000001
42
0.41421356237309503
10
-253.67500000000001
20
124.35000000000001
10
-222.57499999999993
20
124.35000000000001
42
0.41421356237309503
10
-222.07499999999996
20
124.85000000000001
10
-222.07499999999996
20
129.37500000000011
42
-0.41421356237309853
10
-220.57499999999999
20
130.87500000000011
10
-217.57499999999999
20
130.87500000000011
42
-0.41421356237311935
10
-216.07499999999999
20
129.37500000000011
10
-216.07499999999999
20
124.85000000000001
42
0.41421356237309503
10
-215.57499999999999
20
124.35000000000001
10
-70.175000000000011
20
124.35000000000001
42
0.41421356237309503
10
-69.675000000000011
20
124.85000000000001
10
-69.675000000000011
20
129.375
42
-0.41421356237308815
10
-68.175000000000011
20
130.875
10
-65.174999999999997
20
130.875
42
-0.41421356237308815
10
-63.674999999999997
20
129.375
10
-63.674999999999997
20
124.85000000000001
42
0.41421356237309503
10
-63.174999999999997
20
124.35000000000001
10
-32.074999999999989
20
124.35000000000001
42
0.41421356237309503
10
-31.574999999999989
20
124.85000000000001
10
-31.575000000000003
20
129.375
42
-0.41421356237308982
10
-30.074999999999989
20
130.875
10
-27.07500000000001
20
130.875
42
-0.41421356237308982
10
-25.57500000000001
20
129.375
10
-25.57500000000001
20
124.85000000000001
42
0.41421356237309503
10
-25.07500000000001
20
124.35000000000001
10
-0.97500000000000075
20
124.34999999999999
42
-0.41421356237308926
10
0.52500000000000002
20
122.84999999999999
0
LWPOLYLINE
5
101
100
AcDbEntity
8
0
100
AcDbPolyline
90
8
70
1
43
0.0
10
-207.31250000000003
20
69.700000000000003
42
-0.4142135623730222
10
-207.8125
20
69.200000000000003
10
-220.8125
20
69.200000000000003
42
-0.41421356237313667
10
-221.3125
20
69.700000000000003
10
-221.3125
20
82.700000000000017
42
-0.41421356237309503
10
-220.8125
20
83.200000000000017
10
-207.8125
20
83.200000000000003
42
-0.4142135623730846
10
-207.3125
20
82.700000000000017
0
LWPOLYLINE
5
102
100
AcDbEntity
8
0
100
AcDbPolyline
90
8
70
1
43
0.0
10
-31.099999999999994
20
107.80000000000001
10
-31.099999999999994
20
120.8
42
0.41421356237310025
10
-31.600000000000001
20
121.30000000000001
10
-44.600000000000001
20
121.30000000000001
42
0.41421356237307422
10
-45.100000000000016
20
120.8
10
-45.099999999999994
20
107.80000000000001
42
0.4142135623730846
10
-44.600000000000009
20
107.30000000000001
10
-31.600000000000001
20
107.30000000000001
42
0.41421356237309243
0
LWPOLYLINE
5
103
100
AcDbEntity
8
0
100
AcDbPolyline
90
8
70
1
43
0.0
10
-212.07499999999999
20
31.600000000000001
42
-0.41421356237304563
10
-212.57499999999999
20
31.100000000000001
10
-225.57500000000002
20
31.100000000000001
42
-0.41421356237313145
10
-226.07500000000002
20
31.600000000000001
10
-226.07500000000005
20
44.600000000000001
42
-0.41421356237307422
10
-225.57500000000002
20
45.099999999999994
10
-212.57499999999999
20
45.09999999999998
42
-0.41421356237312101
10
-212.07499999999999
20
44.600000000000001
0
LWPOLYLINE
5
104
100
AcDbEntity
8
0
100
AcDbPolyline
90
8
70
1
43
0.0
10
-149.375
20
107.30000000000001
42
-0.41421356237309503
10
-149.875
20
107.80000000000001
10
-149.875
20
120.8
42
-0.41421356237307422
10
-149.375
20
121.30000000000001
10
-136.375
20
121.30000000000001
42
-0.4142135623730534
10
-135.875
20
120.8
10
-135.875
20
107.80000000000001
42
-0.41421356237307422
10
-136.375
20
107.30000000000001
0
LWPOLYLINE
5
105
100
AcDbEntity
8
0
100
AcDbPolyline
90
8
70
1
43
0.0
10
-139.84999999999999
20
50.149999999999999
42
-0.41421356237309503
10
-140.34999999999999
20
50.650000000000006
10
-140.34999999999999
20
63.650000000000006
42
-0.41421356237310542
10
-139.84999999999999
20
64.150000000000006
10
-126.85000000000002
20
64.15000000000002
42
-0.41421356237307944
10
-126.34999999999999
20
63.650000000000006
10
-126.35000000000002
20
50.650000000000006
42
-0.41421356237310025
10
-126.85000000000001
20
50.150000000000006
0
CIRCLE
5
106
100
AcDbEntity
8
0
100
AcDbCircle
10
-66.675000000000011
20
-4.0499999999999989
30
0
40
1.5000000000000036
0
LWPOLYLINE
5
107
100
AcDbEntity
8
0
100
AcDbPolyline
90
8
70
1
43
0.0
10
-88.25
20
50.650000000000006
42
-0.41421356237308982
10
-88.75
20
50.150000000000006
10
-101.75
20
50.149999999999999
42
-0.41421356237309503
10
-102.25000000000001
20
50.650000000000006
10
-102.25000000000001
20
63.650000000000006
42
-0.41421356237310542
10
-101.75
20
64.150000000000006
10
-88.75
20
64.15000000000002
42
-0.41421356237310025
10
-88.25
20
63.650000000000006
0
LWPOLYLINE
5
108
100
AcDbEntity
8
0
100
AcDbPolyline
90
8
70
1
43
0.0
10
-97.775000000000006
20
31.600000000000001
42
-0.41421356237310542
10
-98.275000000000006
20
31.100000000000001
10
-111.27500000000001
20
31.099999999999998
42
-0.41421356237309243
10
-111.77500000000002
20
31.600000000000001
10
-111.77500000000002
20
44.600000000000001
42
-0.41421356237308982
10
-111.27500000000001
20
45.099999999999994
10
-98.275000000000006
20
45.100000000000009
42
-0.41421356237309503
10
-97.775000000000006
20
44.600000000000001
0
LWPOLYLINE
5
109
100
AcDbEntity
8
0
100
AcDbPolyline
90
8
70
1
43
0.0
10
-35.862499999999997
20
69.700000000000003
42
-0.41421356237309764
10
-36.362499999999997
20
69.200000000000003
10
-49.362500000000011
20
69.200000000000003
42
-0.41421356237308982
10
-49.862499999999997
20
69.700000000000003
10
-49.862500000000011
20
82.700000000000017
42
-0.41421356237307422
10
-49.362500000000004
20
83.200000000000017
10
-36.362500000000004
20
83.200000000000003
42
-0.41421356237308721
10
-35.862500000000004
20
82.700000000000017
0
LWPOLYLINE
5
110
100
AcDbEntity
8
0
100
AcDbPolyline
90
8
70
1
43
0.0
10
-69.200000000000003
20
50.650000000000006
42
-0.41421356237309503
10
-69.700000000000003
20
50.150000000000006
10
-82.700000000000017
20
50.149999999999999
42
-0.41421356237307422
10
-83.200000000000017
20
50.650000000000006
10
-83.200000000000003
20
63.650000000000006
42
-0.41421356237310542
10
-82.700000000000017
20
64.150000000000006
10
-69.700000000000003
20
64.150000000000006
42
-0.41421356237310542
10
-69.200000000000003
20
63.650000000000006
0
CIRCLE
5
111
100
AcDbEntity
8
0
100
AcDbCircle
10
-28.574999999999999
20
127.875
30
0
40
1.4999999999999991
0
CIRCLE
5
112
100
AcDbEntity
8
0
100
AcDbCircle
10
-28.574999999999999
20
-4.0499999999999998
30
0
40
1.4999999999999991
0
LWPOLYLINE
5
113
100
AcDbEntity
8
0
100
AcDbPolyline
90
8
70
1
43
0.0
10
-7.2874999999999801
20
107.80000000000001
10
-7.2875000000000156
20
120.8
42
0.41421356237306639
10
-7.7874999999999872
20
121.30000000000001
10
-20.787500000000001
20
121.30000000000001
42
0.41421356237307161
10
-21.287500000000001
20
120.8
10
-21.287500000000001
20
107.80000000000001
42
0.41421356237311063
10
-20.787499999999994
20
107.30000000000001
10
-7.7875000000000005
20
107.30000000000001
42
0.4142135623730937
0
CIRCLE
5
114
100
AcDbEntity
8
0
100
AcDbCircle
10
-257.17500000000001
20
-4.0500000000001659
30
0
40
1.4999999999999858
0
LWPOLYLINE
5
115
100
AcDbEntity
8
0
100
AcDbPolyline
90
8
70
1
43
0.0
10
-226.36250000000004
20
69.700000000000003
42
-0.4142135623730222
10
-226.86250000000001
20
69.200000000000003
10
-239.86250000000001
20
69.200000000000003
42
-0.41421356237313667
10
-240.36250000000001
20
69.700000000000003
10
-240.36250000000001
20
82.700000000000017
42
-0.41421356237309503
10
-239.86250000000001
20
83.200000000000017
10
-226.86250000000001
20
83.200000000000003
42
-0.4142135623730846
10
-226.36250000000001
20
82.700000000000017
0
LWPOLYLINE
5
116
100
AcDbEntity
8
0
100
AcDbPolyline
90
8
70
1
43
0.0
10
-226.36250000000001
20
3.0249999999999999
42
-0.41421356237304624
10
-226.86250000000001
20
2.5249999999999999
10
-239.86250000000001
20
2.5249999999999995
42
-0.41421356237313273
10
-240.36250000000001
20
3.0249999999999999
10
-240.36250000000007
20
16.024999999999999
42
-0.4142135623730781
10
-239.86250000000001
20
16.525000000000002
10
-226.86250000000001
20
16.524999999999984
42
-0.41421356237312362
10
-226.36250000000001
20
16.024999999999999
0
LWPOLYLINE
5
117
100
AcDbEntity
8
0
100
AcDbPolyline
90
8
70
1
43
0.0
10
-243.03125
20
88.75
42
-0.41421356237313667
10
-243.53125000000003
20
88.25
10
-256.53125
20
88.249999999999972
42
-0.41421356237310542
10
-257.03125000000006
20
88.75
10
-257.03125
20
101.75
42
-0.41421356237310542
10
-256.53125
20
102.25000000000001
10
-243.53125000000003
20
102.25000000000001
42
-0.41421356237313667
10
-243.03125
20
101.75
0
LWPOLYLINE
5
118
100
AcDbEntity
8
0
100
AcDbPolyline
90
8
70
1
43
0.0
10
-45.387500000000003
20
3.0250000000000021
10
-45.387500000000003
20
16.024999999999999
42
0.41421356237310025
10
-45.88750000000001
20
16.524999999999999
10
-58.88750000000001
20
16.525000000000002
42
0.4142135623730937
10
-59.387500000000003
20
16.024999999999999
10
-59.387500000000003
20
3.0249999999999999
42
0.41421356237308915
10
-58.887500000000017
20
2.5250000000000039
10
-45.887500000000003
20
2.5249999999999999
42
0.41421356237309537
0
LWPOLYLINE
5
119
100
AcDbEntity
8
0
100
AcDbPolyline
90
8
70
1
43
0.0
10
-269.22500000000008
20
88.75
42
-0.41421356237310542
10
-269.72500000000002
20
88.25
10
-282.72500000000002
20
88.25
42
-0.41421356237313667
10
-283.22500000000002
20
88.75
10
-283.22500000000002
20
101.75
42
-0.41421356237313667
10
-282.72500000000002
20
102.25000000000001
10
-269.72500000000002
20
102.25000000000003
42
-0.41421356237310542
10
-269.22500000000002
20
101.75
0
LWPOLYLINE
5
120
100
AcDbEntity
8
0
100
AcDbPolyline
90
8
70
1
43
0.0
10
-107.30000000000001
20
50.650000000000006
10
-107.30000000000001
20
63.650000000000006
42
0.41421356237310025
10
-107.80000000000001
20
64.150000000000006
10
-120.8
20
64.150000000000006
42
0.41421356237310542
10
-121.30000000000001
20
63.650000000000006
10
-121.30000000000001
20
50.650000000000006
42
0.41421356237307422
10
-120.8
20
50.150000000000006
10
-107.80000000000001
20
50.150000000000006
42
0.41421356237308982
0
LWPOLYLINE
5
121
100
AcDbEntity
8
0
100
AcDbPolyline
90
8
70
1
43
0.0
10
-77.9375
20
2.525000000000003
42
-0.41421356237309437
10
-78.4375
20
3.0249999999999999
10
-78.4375
20
16.024999999999999
42
-0.4142135623730937
10
-77.9375
20
16.525000000000002
10
-64.9375
20
16.525000000000002
42
-0.41421356237309764
10
-64.4375
20
16.024999999999999
10
-64.4375
20
3.0250000000000021
42
-0.41421356237309798
10
-64.9375
20
2.5249999999999999
0
LWPOLYLINE
5
122
100
AcDbEntity
8
0
100
AcDbPolyline
90
8
70
1
43
0.0
10
-29.994250000000001
20
89.75
42
-0.41421356237307161
10
-30.494250000000001
20
89.249999999999986
10
-36.244249999999987
20
89.25
42
-0.41421356237311063
10
-36.744250000000001
20
89.75
10
-36.744250000000008
20
102.75
42
-0.41421356237307161
10
-36.244250000000008
20
103.25000000000001
10
-30.494249999999994
20
103.25
42
-0.41421356237309503
10
-29.994250000000005
20
102.75
0
LWPOLYLINE
5
123
100
AcDbEntity
8
0
100
AcDbPolyline
90
8
70
1
43
0.0
10
-196.64999999999998
20
108.80000000000001
42
-0.4142135623730846
10
-197.15000000000003
20
108.3
10
-202.90000000000003
20
108.3
42
-0.41421356237309503
10
-203.40000000000003
20
108.80000000000001
10
-203.40000000000003
20
121.8
42
-0.41421356237313667
10
-202.90000000000003
20
122.30000000000001
10
-197.15000000000003
20
122.30000000000003
42
-0.41421356237310542
10
-196.65000000000003
20
121.8
0
LWPOLYLINE
5
124
100
AcDbEntity
8
0
100
AcDbPolyline
90
8
70
1
43
0.0
10
-83.487499999999969
20
3.0249999999999999
42
-0.41421356237310542
10
-83.987499999999997
20
2.5249999999999999
10
-96.987500000000011
20
2.5249999999999941
42
-0.41421356237309437
10
-97.487500000000011
20
3.0249999999999999
10
-97.487500000000011
20
16.024999999999999
42
-0.41421356237310675
10
-96.987500000000011
20
16.525000000000002
10
-83.987499999999997
20
16.525000000000009
42
-0.41421356237309631
10
-83.487499999999983
20
16.024999999999999
0
LWPOLYLINE
5
125
100
AcDbEntity
8
0
100
AcDbPolyline
90
8
70
1
43
0.0
10
-264.46249999999998
20
107.80000000000001
42
-0.41421356237313667
10
-264.96249999999998
20
107.30000000000001
10
-277.96249999999998
20
107.29999999999998
42
-0.41421356237310542
10
-278.46250000000003
20
107.80000000000001
10
-278.46250000000003
20
120.8
42
-0.4142135623730846
10
-277.96249999999998
20
121.30000000000001
10
-264.96249999999998
20
121.30000000000001
42
-0.41421356237309503
10
-264.46249999999998
20
120.8
0
LWPOLYLINE
5
126
100
AcDbEntity
8
0
100
AcDbPolyline
90
8
70
1
43
0.0
10
-216.83750000000003
20
88.75
42
-0.41421356237310542
10
-217.33750000000001
20
88.25
10
-230.33750000000001
20
88.25
42
-0.41421356237313667
10
-230.83750000000003
20
88.75
10
-230.83750000000003
20
101.75
42
-0.41421356237313667
10
-230.33750000000001
20
102.25000000000001
10
-217.33750000000001
20
102.25000000000003
42
-0.41421356237310542
10
-216.83750000000001
20
101.75
0
LWPOLYLINE
5
127
100
AcDbEntity
8
0
100
AcDbPolyline
90
8
70
1
43
0.0
10
-183.49999999999997
20
50.650000000000006
42
-0.41421356237307422
10
-184.00000000000003
20
50.150000000000006
10
-197.00000000000003
20
50.15000000000002
42
-0.41421356237312101
10
-197.50000000000003
20
50.650000000000006
10
-197.5
20
63.650000000000006
42
-0.4142135623730222
10
-197.00000000000003
20
64.150000000000006
10
-184.00000000000003
20
64.150000000000006
42
-0.41421356237313667
10
-183.5
20
63.650000000000006
0
LWPOLYLINE
5
128
100
AcDbEntity
8
0
100
AcDbPolyline
90
8
70
1
43
0.0
10
-145.40000000000003
20
50.650000000000006
42
-0.41421356237310025
10
-145.90000000000001
20
50.150000000000006
10
-158.90000000000001
20
50.149999999999999
42
-0.41421356237309503
10
-159.40000000000001
20
50.650000000000006
10
-159.40000000000001
20
63.650000000000006
42
-0.41421356237310542
10
-158.90000000000001
20
64.150000000000006
10
-145.90000000000003
20
64.15000000000002
42
-0.41421356237307944
10
-145.40000000000001
20
63.650000000000006
0
LWPOLYLINE
5
129
100
AcDbEntity
8
0
100
AcDbPolyline
90
8
70
1
43
0.0
10
-50.150000000000006
20
50.650000000000006
42
-0.41421356237309503
10
-50.650000000000006
20
50.150000000000006
10
-63.650000000000006
20
50.150000000000006
42
-0.41421356237309503
10
-64.150000000000006
20
50.650000000000006
10
-64.150000000000006
20
63.650000000000006
42
-0.41421356237310542
10
-63.650000000000006
20
64.150000000000006
10
-50.650000000000013
20
64.150000000000006
42
-0.41421356237310025
10
-50.150000000000006
20
63.650000000000006
0
LWPOLYLINE
5
130
100
AcDbEntity
8
0
100
AcDbPolyline
90
8
70
1
43
0.0
10
-23.168749999999999
20
69.200000000000017
42
-0.41421356237309764
10
-23.668749999999999
20
69.700000000000003
10
-23.668750000000006
20
82.700000000000017
42
-0.41421356237307422
10
-23.168749999999999
20
83.200000000000017
10
-10.168749999999989
20
83.200000000000017
42
-0.41421356237306772
10
-9.6687499999999993
20
82.700000000000017
10
-9.6687499999999975
20
69.700000000000003
42
-0.41421356237309764
10
-10.168749999999999
20
69.200000000000003
0
LWPOLYLINE
5
131
100
AcDbEntity
8
0
100
AcDbPolyline
90
8
70
1
43
0.0
10
-31.100000000000001
20
50.650000000000006
42
-0.41421356237309503
10
-31.600000000000001
20
50.150000000000006
10
-44.600000000000009
20
50.150000000000006
42
-0.41421356237308982
10
-45.099999999999994
20
50.650000000000006
10
-45.099999999999994
20
63.650000000000006
42
-0.41421356237309503
10
-44.600000000000001
20
64.150000000000006
10
-31.600000000000001
20
64.149999999999991
42
-0.41421356237309764
10
-31.100000000000001
20
63.650000000000006
0
LWPOLYLINE
5
132
100
AcDbEntity
8
0
100
AcDbPolyline
90
8
70
1
43
0.0
10
-6.1182499999999944
20
89.75
42
-0.41421356237307355
10
-6.6182499999999997
20
89.249999999999986
10
-12.368249999999996
20
89.25
42
-0.4142135623730781
10
-12.868250000000002
20
89.75
10
-12.86825000000001
20
102.75
42
-0.41421356237307549
10
-12.36825
20
103.25000000000001
10
-6.6182500000000033
20
103.25000000000001
42
-0.41421356237307549
10
-6.1182499999999997
20
102.75
0
LWPOLYLINE
5
133
100
AcDbEntity
8
0
100
AcDbPolyline
90
8
70
1
43
0.0
10
-26.337499999999999
20
3.0249999999999999
42
-0.41421356237309537
10
-26.837499999999999
20
2.5249999999999999
10
-39.837500000000006
20
2.5249999999999995
42
-0.41421356237310153
10
-40.337500000000006
20
3.0249999999999999
10
-40.337500000000006
20
16.024999999999999
42
-0.41421356237310414
10
-39.837499999999999
20
16.525000000000002
10
-26.837499999999999
20
16.525000000000002
42
-0.41421356237309631
10
-26.337499999999999
20
16.024999999999999
0
LWPOLYLINE
5
134
100
AcDbEntity
8
0
100
AcDbPolyline
90
8
70
1
43
0.0
10
-145.40000000000001
20
3.0249999999999999
42
-0.41421356237307422
10
-145.90000000000001
20
2.5249999999999999
10
-158.90000000000001
20
2.5249999999999941
42
-0.41421356237309437
10
-159.40000000000001
20
3.0249999999999999
10
-159.40000000000001
20
16.024999999999999
42
-0.41421356237310675
10
-158.90000000000001
20
16.525000000000002
10
-145.90000000000001
20
16.525000000000009
42
-0.41421356237307549
10
-145.40000000000001
20
16.024999999999999
0
LWPOLYLINE
5
135
100
AcDbEntity
8
0
100
AcDbPolyline
90
8
70
1
43
0.0
10
-150.16249999999999
20
69.700000000000003
42
-0.41421356237310542
10
-150.66249999999999
20
69.200000000000003
10
-163.66250000000002
20
69.200000000000017
42
-0.41421356237312623
10
-164.16250000000002
20
69.700000000000003
10
-164.16250000000005
20
82.700000000000017
42
-0.4142135623730846
10
-163.66250000000002
20
83.200000000000017
10
-150.66249999999999
20
83.200000000000017
42
-0.41421356237307422
10
-150.16249999999999
20
82.700000000000017
0
LWPOLYLINE
5
136
100
AcDbEntity
8
0
100
AcDbPolyline
90
8
70
1
43
0.0
10
-140.63749999999999
20
88.75
10
-140.63749999999999
20
101.75
42
0.41421356237309503
10
-141.13749999999999
20
102.25000000000001
10
-154.13749999999999
20
102.25000000000001
42
0.41421356237309503
10
-154.63750000000002
20
101.75
10
-154.63750000000002
20
88.75
42
0.41421356237309503
10
-154.13749999999999
20
88.25
10
-141.13749999999999
20
88.25
42
0.41421356237309503
0
LWPOLYLINE
5
137
100
AcDbEntity
8
0
100
AcDbPolyline
90
8
70
1
43
0.0
10
-216.83750000000003
20
107.80000000000001
42
-0.41421356237310542
10
-217.33750000000001
20
107.30000000000001
10
-230.33750000000001
20
107.30000000000001
42
-0.41421356237313667
10
-230.83750000000003
20
107.80000000000001
10
-230.83750000000003
20
120.8
42
-0.41421356237309503
10
-230.33750000000001
20
121.30000000000001
10
-217.33750000000001
20
121.29999999999998
42
-0.4142135623730846
10
-216.83750000000001
20
120.8
0
LWPOLYLINE
5
138
100
AcDbEntity
8
0
100
AcDbPolyline
90
8
70
1
43
0.0
10
-240.65000000000003
20
50.650000000000006
42
-0.4142135623730222
10
-241.15000000000003
20
50.150000000000006
10
-254.15000000000003
20
50.150000000000006
42
-0.41421356237313145
10
-254.65000000000003
20
50.650000000000006
10
-254.65000000000006
20
63.650000000000006
42
-0.41421356237307422
10
-254.15000000000003
20
64.150000000000006
10
-241.15000000000003
20
64.149999999999991
42
-0.41421356237312623
10
-240.65000000000001
20
63.650000000000006
0
LWPOLYLINE
5
139
100
AcDbEntity
8
0
100
AcDbPolyline
90
8
70
1
43
0.0
10
-40.625
20
31.600000000000001
10
-40.625
20
44.600000000000001
42
0.41421356237310025
10
-41.125000000000007
20
45.099999999999994
10
-54.125000000000007
20
45.099999999999994
42
0.41421356237309503
10
-54.625
20
44.600000000000001
10
-54.625
20
31.600000000000001
42
0.41421356237308982
10
-54.125000000000014
20
31.100000000000001
10
-41.125
20
31.100000000000001
42
0.41421356237309503
0
LWPOLYLINE
5
140
100
AcDbEntity
8
0
100
AcDbPolyline
90
8
70
1
43
0.0
10
-112.0625
20
69.700000000000003
42
-0.41421356237310542
10
-112.56250000000001
20
69.200000000000003
10
-125.56249999999999
20
69.199999999999989
42
-0.41421356237307944
10
-126.06250000000001
20
69.700000000000003
10
-126.06250000000001
20
82.700000000000017
42
-0.4142135623730534
10
-125.5625
20
83.200000000000017
10
-112.56250000000001
20
83.200000000000017
42
-0.41421356237307422
10
-112.0625
20
82.700000000000017
0
LWPOLYLINE
5
141
100
AcDbEntity
8
0
100
AcDbPolyline
90
8
70
1
43
0.0
10
-169.21249999999998
20
69.700000000000003
42
-0.41421356237307422
10
-169.71250000000001
20
69.200000000000003
10
-182.71250000000003
20
69.200000000000017
42
-0.41421356237312623
10
-183.21250000000003
20
69.700000000000003
10
-183.21250000000006
20
82.700000000000017
42
-0.4142135623730846
10
-182.71250000000003
20
83.200000000000017
10
-169.71250000000001
20
83.200000000000017
42
-0.41421356237309503
10
-169.21250000000001
20
82.700000000000017
0
LWPOLYLINE
5
142
100
AcDbEntity
8
0
100
AcDbPolyline
90
8
70
1
43
0.0
10
-102.53749999999999
20
88.75
42
-0.41421356237309503
10
-103.03750000000001
20
88.25
10
-116.03749999999999
20
88.25
42
-0.41421356237307422
10
-116.53750000000001
20
88.75
10
-116.53750000000001
20
101.75
42
-0.41421356237307422
10
-116.03749999999999
20
102.25000000000001
10
-103.03750000000001
20
102.25000000000001
42
-0.41421356237309503
10
-102.53749999999999
20
101.75
0
LWPOLYLINE
5
143
100
AcDbEntity
8
0
100
AcDbPolyline
90
8
70
1
43
0.0
10
-188.26249999999999
20
3.0249999999999999
42
-0.41421356237304624
10
-188.76249999999999
20
2.5249999999999999
10
-201.76249999999999
20
2.5249999999999995
42
-0.41421356237313273
10
-202.26249999999999
20
3.0249999999999999
10
-202.26250000000005
20
16.024999999999999
42
-0.4142135623730781
10
-201.76249999999999
20
16.525000000000002
10
-188.76249999999999
20
16.524999999999984
42
-0.41421356237312362
10
-188.26249999999999
20
16.024999999999999
0
CIRCLE
5
144
100
AcDbEntity
8
0
100
AcDbCircle
10
-219.07499999999999
20
-4.05000000000011
30
0
40
1.4999999999999858
0
LWPOLYLINE
5
145
100
AcDbEntity
8
0
100
AcDbPolyline
90
8
70
1
43
0.0
10
-188.26250000000002
20
69.700000000000003
42
-0.4142135623730222
10
-188.76249999999999
20
69.200000000000003
10
-201.76249999999999
20
69.200000000000003
42
-0.41421356237313667
10
-202.26249999999999
20
69.700000000000003
10
-202.26249999999999
20
82.700000000000017
42
-0.41421356237309503
10
-201.76249999999999
20
83.200000000000017
10
-188.76249999999999
20
83.200000000000003
42
-0.4142135623730846
10
-188.26249999999999
20
82.700000000000017
0
LWPOLYLINE
5
146
100
AcDbEntity
8
0
100
AcDbPolyline
90
8
70
1
43
0.0
10
-2.5249999999999999
20
3.0249999999999999
42
-0.41421356237309437
10
-3.0249999999999999
20
2.5249999999999999
10
-16.024999999999991
20
2.5249999999999986
42
-0.41421356237309825
10
-16.525000000000002
20
3.0249999999999999
10
-16.525000000000002
20
16.024999999999999
42
-0.41421356237309243
10
-16.024999999999999
20
16.525000000000002
10
-3.0249999999999844
20
16.525000000000002
42
-0.4142135623730856
10
-2.5249999999999999
20
16.024999999999999
0
LWPOLYLINE
5
147
100
AcDbEntity
8
0
100
AcDbPolyline
90
8
70
1
43
0.0
10
-82.349999999999994
20
108.80000000000001
42
-0.41421356237307422
10
-82.849999999999994
20
108.3
10
-88.599999999999994
20
108.3
42
-0.41421356237307422
10
-89.099999999999994
20
108.80000000000001
10
-89.099999999999994
20
121.8
42
-0.41421356237309503
10
-88.599999999999994
20
122.30000000000001
10
-82.849999999999994
20
122.30000000000001
42
-0.41421356237309503
10
-82.349999999999994
20
121.8
0
LWPOLYLINE
5
148
100
AcDbEntity
8
0
100
AcDbPolyline
90
8
70
1
43
0.0
10
-35.075000000000003
20
31.100000000000001
42
-0.41421356237309503
10
-35.575000000000003
20
31.600000000000001
10
-35.575000000000003
20
44.600000000000001
42
-0.41421356237309503
10
-35.075000000000003
20
45.099999999999994
10
-22.074999999999996
20
45.099999999999994
42
-0.41421356237309243
10
-21.575000000000003
20
44.600000000000001
10
-21.575000000000003
20
31.600000000000001
42
-0.41421356237309503
10
-22.074999999999999
20
31.100000000000001
0
LWPOLYLINE
5
149
100
AcDbEntity
8
0
100
AcDbPolyline
90
8
70
1
43
0.0
10
-45.387500000000003
20
88.75
10
-45.387500000000003
20
101.75
42
0.41421356237309503
10
-45.88750000000001
20
102.25000000000001
10
-58.88750000000001
20
102.25000000000001
42
0.41421356237309503
10
-59.387500000000024
20
101.75
10
-59.387500000000003
20
88.75
42
0.4142135623730846
10
-58.887500000000017
20
88.25
10
-45.887500000000003
20
88.25
42
0.41421356237309503
0
LWPOLYLINE
5
150
100
AcDbEntity
8
0
100
AcDbPolyline
90
8
70
1
43
0.0
10
-73.962500000000006
20
69.700000000000003
42
-0.41421356237310542
10
-74.462500000000006
20
69.200000000000003
10
-87.462500000000006
20
69.199999999999989
42
-0.41421356237307944
10
-87.96250000000002
20
69.700000000000003
10
-87.96250000000002
20
82.700000000000017
42
-0.4142135623730534
10
-87.46250000000002
20
83.200000000000017
10
-74.462500000000006
20
83.200000000000003
42
-0.41421356237310542
10
-73.962500000000006
20
82.700000000000017
0
LWPOLYLINE
5
151
100
AcDbEntity
8
0
100
AcDbPolyline
90
8
70
1
43
0.0
10
-202.54999999999998
20
50.650000000000006
42
-0.41421356237307422
10
-203.05000000000004
20
50.150000000000006
10
-216.05000000000004
20
50.15000000000002
42
-0.41421356237312101
10
-216.55000000000004
20
50.650000000000006
10
-216.55000000000001
20
63.650000000000006
42
-0.4142135623730222
10
-216.05000000000004
20
64.150000000000006
10
-203.05000000000004
20
64.150000000000006
42
-0.41421356237313667
10
-202.55000000000001
20
63.650000000000006
0
LWPOLYLINE
5
152
100
AcDbEntity
8
0
100
AcDbPolyline
90
8
70
1
43
0.0
10
-244.62500000000003
20
31.100000000000001
42
-0.41421356237313145
10
-245.12500000000003
20
31.600000000000001
10
-245.12500000000006
20
44.600000000000001
42
-0.41421356237307422
10
-244.62500000000003
20
45.099999999999994
10
-231.625
20
45.09999999999998
42
-0.41421356237312101
10
-231.125
20
44.600000000000001
10
-231.125
20
31.600000000000001
42
-0.41421356237304563
10
-231.625
20
31.100000000000001
0
LWPOLYLINE
5
153
100
AcDbEntity
8
0
100
AcDbPolyline
90
8
70
1
43
0.0
10
-54.912500000000001
20
107.80000000000001
42
-0.41421356237309503
10
-55.412500000000009
20
107.30000000000001
10
-68.412499999999994
20
107.30000000000001
42
-0.41421356237309503
10
-68.912499999999994
20
107.80000000000001
10
-68.912500000000009
20
120.8
42
-0.41421356237307422
10
-68.412499999999994
20
121.30000000000001
10
-55.412500000000016
20
121.29999999999998
42
-0.41421356237310542
10
-54.912500000000009
20
120.8
0
LWPOLYLINE
5
154
100
AcDbEntity
8
0
100
AcDbPolyline
90
8
70
1
43
0.0
10
-120.8
20
2.5249999999999941
42
-0.41421356237307355
10
-121.30000000000001
20
3.0249999999999999
10
-121.29999999999998
20
16.024999999999999
42
-0.41421356237307549
10
-120.8
20
16.525000000000002
10
-107.80000000000001
20
16.525000000000009
42
-0.41421356237309631
10
-107.30000000000001
20
16.024999999999999
10
-107.29999999999998
20
3.0250000000000021
42
-0.41421356237310675
10
-107.80000000000001
20
2.5249999999999999
0
LWPOLYLINE
5
155
100
AcDbEntity
8
0
100
AcDbPolyline
90
8
70
1
43
0.0
10
-27.931249999999999
20
88.25
42
-0.41421356237310542
10
-28.431249999999999
20
88.75
10
-28.431250000000002
20
101.75
42
-0.41421356237309243
10
-27.931249999999999
20
102.25000000000001
10
-14.931249999999991
20
102.25000000000001
42
-0.41421356237310153
10
-14.43125
20
101.75
10
-14.431249999999991
20
88.75
42
-0.41421356237309631
10
-14.93125
20
88.25
0
LWPOLYLINE
5
156
100
AcDbEntity
8
0
100
AcDbPolyline
90
8
70
1
43
0.0
10
-173.97499999999997
20
31.600000000000001
42
-0.41421356237307683
10
-174.47500000000002
20
31.100000000000001
10
-187.47499999999999
20
31.100000000000001
42
-0.41421356237313145
10
-187.97499999999999
20
31.600000000000001
10
-187.97500000000002
20
44.600000000000001
42
-0.41421356237307422
10
-187.47499999999999
20
45.099999999999994
10
-174.47500000000002
20
45.099999999999994
42
-0.41421356237313145
10
-173.97500000000002
20
44.600000000000001
0
CIRCLE
5
157
100
AcDbEntity
8
0
100
AcDbCircle
10
-219.07499999999999
20
127.87500000000011
30
0
40
1.4999999999999858
0
LWPOLYLINE
5
158
100
AcDbEntity
8
0
100
AcDbPolyline
90
8
70
1
43
0.0
10
-177.94999999999999
20
2.5249999999999995
42
-0.41421356237313273
10
-178.44999999999999
20
3.0249999999999999
10
-178.45000000000002
20
16.024999999999999
42
-0.4142135623730781
10
-177.94999999999999
20
16.525000000000002
10
-164.95000000000002
20
16.525000000000002
42
-0.41421356237313406
10
-164.44999999999999
20
16.024999999999999
10
-164.44999999999996
20
3.0250000000000021
42
-0.41421356237307877
10
-164.95000000000002
20
2.5249999999999999
0
LWPOLYLINE
5
159
100
AcDbEntity
8
0
100
AcDbPolyline
90
8
70
1
43
0.0
10
-131.11250000000001
20
69.700000000000003
42
-0.41421356237310542
10
-131.61250000000001
20
69.200000000000003
10
-144.61250000000001
20
69.199999999999989
42
-0.41421356237307944
10
-145.11250000000001
20
69.700000000000003
10
-145.11250000000001
20
82.700000000000017
42
-0.4142135623730534
10
-144.61250000000001
20
83.200000000000017
10
-131.61250000000001
20
83.200000000000017
42
-0.41421356237307422
10
-131.11250000000001
20
82.700000000000017
0
LWPOLYLINE
5
160
100
AcDbEntity
8
0
100
AcDbPolyline
90
8
70
1
43
0.0
10
-277.96249999999998
20
50.15000000000002
42
-0.41421356237312101
10
-278.46250000000003
20
50.650000000000006
10
-278.46249999999998
20
63.650000000000006
42
-0.4142135623730222
10
-277.96249999999998
20
64.150000000000006
10
-264.96249999999998
20
64.150000000000006
42
-0.41421356237313667
10
-264.46249999999998
20
63.650000000000006
10
-264.46249999999998
20
50.650000000000006
42
-0.41421356237307422
10
-264.96249999999998
20
50.150000000000006
0
LWPOLYLINE
5
161
100
AcDbEntity
8
0
100
AcDbPolyline
90
8
70
1
43
0.0
10
-154.92500000000004
20
31.600000000000001
42
-0.41421356237310025
10
-155.42500000000001
20
31.100000000000001
10
-168.42500000000001
20
31.099999999999987
42
-0.41421356237310025
10
-168.92500000000001
20
31.600000000000001
10
-168.92499999999998
20
44.600000000000001
42
-0.4142135623730222
10
-168.42500000000001
20
45.099999999999994
10
-155.42500000000001
20
45.100000000000009
42
-0.41421356237307422
10
-154.92500000000001
20
44.600000000000001
0
LWPOLYLINE
5
162
100
AcDbEntity
8
0
100
AcDbPolyline
90
8
70
1
43
0.0
10
-159.6875
20
88.75
42
-0.41421356237309503
10
-160.1875
20
88.25
10
-173.1875
20
88.249999999999972
42
-0.41421356237310542
10
-173.68750000000003
20
88.75
10
-173.6875
20
101.75
42
-0.41421356237310542
10
-173.1875
20
102.25000000000001
10
-160.1875
20
102.25000000000001
42
-0.41421356237309503
10
-159.6875
20
101.75
0
LWPOLYLINE
5
163
100
AcDbEntity
8
0
100
AcDbPolyline
90
8
70
1
43
0.0
10
-135.87500000000003
20
31.600000000000001
42
-0.41421356237310025
10
-136.375
20
31.100000000000001
10
-149.375
20
31.099999999999998
42
-0.41421356237309243
10
-149.875
20
31.600000000000001
10
-149.875
20
44.600000000000001
42
-0.41421356237308982
10
-149.375
20
45.099999999999994
10
-136.375
20
45.100000000000009
42
-0.41421356237307422
10
-135.875
20
44.600000000000001
0
LWPOLYLINE
5
164
100
AcDbEntity
8
0
100
AcDbPolyline
90
8
70
1
43
0.0
10
-121.58750000000001
20
88.75
42
-0.41421356237309503
10
-122.08750000000002
20
88.25
10
-135.08750000000001
20
88.25
42
-0.41421356237307422
10
-135.58750000000001
20
88.75
10
-135.58750000000001
20
101.75
42
-0.41421356237307422
10
-135.08750000000001
20
102.25000000000001
10
-122.08750000000002
20
102.25000000000001
42
-0.41421356237309503
10
-121.58750000000001
20
101.75
0
LWPOLYLINE
5
165
100
AcDbEntity
8
0
100
AcDbPolyline
90
8
70
1
43
0.0
10
-73.174999999999997
20
31.100000000000001
42
-0.41421356237309503
10
-73.674999999999997
20
31.600000000000001
10
-73.674999999999997
20
44.600000000000001
42
-0.41421356237309503
10
-73.174999999999997
20
45.099999999999994
10
-60.174999999999997
20
45.099999999999994
42
-0.41421356237309503
10
-59.675000000000004
20
44.600000000000001
10
-59.675000000000011
20
31.600000000000001
42
-0.41421356237309764
10
-60.174999999999997
20
31.100000000000001
0
LWPOLYLINE
5
166
100
AcDbEntity
8
0
100
AcDbPolyline
90
8
70
1
43
0.0
10
-207.3125
20
3.0249999999999999
42
-0.41421356237304624
10
-207.8125
20
2.5249999999999999
10
-220.8125
20
2.5249999999999995
42
-0.41421356237313273
10
-221.3125
20
3.0249999999999999
10
-221.31250000000006
20
16.024999999999999
42
-0.4142135623730781
10
-220.8125
20
16.525000000000002
10
-207.8125
20
16.524999999999984
42
-0.41421356237312362
10
-207.3125
20
16.024999999999999
0
LWPOLYLINE
5
167
100
AcDbEntity
8
0
100
AcDbPolyline
90
8
70
1
43
0.0
10
-126.34999999999999
20
3.0249999999999999
42
-0.41421356237307422
10
-126.85000000000001
20
2.5249999999999999
10
-139.84999999999999
20
2.5249999999999941
42
-0.41421356237309437
10
-140.34999999999999
20
3.0249999999999999
10
-140.34999999999999
20
16.024999999999999
42
-0.41421356237310675
10
-139.84999999999999
20
16.525000000000002
10
-126.85000000000001
20
16.525000000000009
42
-0.41421356237307549
10
-126.34999999999999
20
16.024999999999999
0
CIRCLE
5
168
100
AcDbEntity
8
0
100
AcDbCircle
10
-66.675000000000011
20
127.875
30
0
40
1.5000000000000036
0
LWPOLYLINE
5
169
100
AcDbEntity
8
0
100
AcDbPolyline
90
8
70
1
43
0.0
10
-272.88175000000001
20
70.700000000000003
42
-0.41421356237307422
10
-273.38175000000001
20
70.200000000000003
10
-279.13175000000001
20
70.200000000000017
42
-0.41421356237312623
10
-279.63175000000001
20
70.700000000000003
10
-279.63175000000001
20
83.700000000000017
42
-0.41421356237310542
10
-279.13175000000001
20
84.200000000000017
10
-273.38175000000001
20
84.200000000000017
42
-0.41421356237313667
10
-272.88175000000001
20
83.700000000000017
0
LWPOLYLINE
5
170
100
AcDbEntity
8
0
100
AcDbPolyline
90
8
70
1
43
0.0
10
-221.60000000000002
20
50.650000000000006
42
-0.4142135623730222
10
-222.10000000000002
20
50.150000000000006
10
-235.10000000000002
20
50.150000000000006
42
-0.41421356237313145
10
-235.60000000000002
20
50.650000000000006
10
-235.60000000000005
20
63.650000000000006
42
-0.41421356237307422
10
-235.10000000000002
20
64.150000000000006
10
-222.10000000000002
20
64.149999999999991
42
-0.41421356237312623
10
-221.59999999999999
20
63.650000000000006
0
LWPOLYLINE
5
171
100
AcDbEntity
8
0
100
AcDbPolyline
90
8
70
1
43
0.0
10
-269.22500000000002
20
3.0249999999999999
42
-0.41421356237304624
10
-269.72500000000002
20
2.5249999999999999
10
-282.72500000000002
20
2.5249999999999995
42
-0.41421356237313273
10
-283.22500000000002
20
3.0249999999999999
10
-283.22500000000008
20
16.024999999999999
42
-0.4142135623730781
10
-282.72500000000002
20
16.525000000000002
10
-269.72500000000002
20
16.524999999999984
42
-0.41421356237312362
10
-269.22500000000002
20
16.024999999999999
0
LWPOLYLINE
5
172
100
AcDbEntity
8
0
100
AcDbPolyline
90
8
70
1
43
0.0
10
-254.15000000000003
20
107.30000000000001
42
-0.41421356237313667
10
-254.65000000000003
20
107.80000000000001
10
-254.65000000000003
20
120.8
42
-0.41421356237309503
10
-254.15000000000003
20
121.30000000000001
10
-241.15000000000003
20
121.29999999999998
42
-0.4142135623730846
10
-240.65000000000001
20
120.8
10
-240.65000000000003
20
107.80000000000001
42
-0.41421356237310542
10
-241.15000000000003
20
107.30000000000001
0
LWPOLYLINE
5
173
100
AcDbEntity
8
0
100
AcDbPolyline
90
8
70
1
43
0.0
10
-197.78750000000002
20
88.75
42
-0.41421356237310542
10
-198.28749999999999
20
88.25
10
-211.28749999999999
20
88.25
42
-0.41421356237313667
10
-211.78750000000002
20
88.75
10
-211.78750000000002
20
101.75
42
-0.41421356237313667
10
-211.28749999999999
20
102.25000000000001
10
-198.28749999999999
20
102.25000000000003
42
-0.41421356237310542
10
-197.78749999999999
20
101.75
0
LWPOLYLINE
5
174
100
AcDbEntity
8
0
100
AcDbPolyline
90
8
70
1
43
0.0
10
-249.00575000000003
20
70.700000000000003
42
-0.4142135623730222
10
-249.50575000000001
20
70.200000000000003
10
-255.25575000000003
20
70.200000000000017
42
-0.41421356237312623
10
-255.75575000000003
20
70.700000000000003
10
-255.75575000000001
20
83.700000000000017
42
-0.41421356237310542
10
-255.25575000000003
20
84.200000000000017
10
-249.50575000000001
20
84.200000000000031
42
-0.41421356237310542
10
-249.00575000000001
20
83.700000000000017
0
LWPOLYLINE
5
175
100
AcDbEntity
8
0
100
AcDbPolyline
90
8
70
1
43
0.0
10
-2.5250000000000004
20
31.600000000000001
42
-0.4142135623730957
10
-3.0249999999999999
20
31.100000000000001
10
-16.024999999999991
20
31.100000000000001
42
-0.41421356237310025
10
-16.525000000000002
20
31.600000000000001
10
-16.524999999999999
20
44.600000000000001
42
-0.41421356237309503
10
-16.024999999999999
20
45.099999999999994
10
-3.0249999999999844
20
45.099999999999994
42
-0.41421356237308493
10
-2.5249999999999999
20
44.600000000000001
0
LWPOLYLINE
5
176
100
AcDbEntity
8
0
100
AcDbPolyline
90
8
70
1
43
0.0
10
-193.02499999999998
20
31.600000000000001
42
-0.41421356237307683
10
-193.52500000000003
20
31.100000000000001
10
-206.52500000000003
20
31.099999999999987
42
-0.41421356237310025
10
-207.02500000000003
20
31.600000000000001
10
-207.02500000000001
20
44.600000000000001
42
-0.4142135623730222
10
-206.52500000000003
20
45.099999999999994
10
-193.52500000000003
20
45.099999999999994
42
-0.41421356237313145
10
-193.02500000000003
20
44.600000000000001
0
LWPOLYLINE
5
177
100
AcDbEntity
8
0
100
AcDbPolyline
90
8
70
1
43
0.0
10
-245.41250000000002
20
3.0249999999999999
42
-0.41421356237304624
10
-245.91250000000002
20
2.5249999999999999
10
-258.91250000000002
20
2.5249999999999995
42
-0.41421356237313273
10
-259.41250000000002
20
3.0249999999999999
10
-259.41250000000008
20
16.024999999999999
42
-0.4142135623730781
10
-258.91250000000002
20
16.525000000000002
10
-245.91250000000002
20
16.524999999999984
42
-0.41421356237312362
10
-245.41250000000002
20
16.024999999999999
0
LWPOLYLINE
5
178
100
AcDbEntity
8
0
100
AcDbPolyline
90
8
70
1
43
0.0
10
-64.437499999999986
20
88.75
42
-0.41421356237310025
10
-64.9375
20
88.25
10
-77.9375
20
88.25
42
-0.41421356237309503
10
-78.4375
20
88.75
10
-78.437500000000014
20
101.75
42
-0.41421356237309503
10
-77.9375
20
102.25000000000001
10
-64.9375
20
102.25000000000001
42
-0.41421356237310542
10
-64.4375
20
101.75
0
LWPOLYLINE
5
179
100
AcDbEntity
8
0
100
AcDbPolyline
90
8
70
1
43
0.0
10
-83.487499999999983
20
88.75
10
-83.487499999999983
20
101.75
42
0.41421356237309503
10
-83.987499999999997
20
102.25000000000001
10
-96.987500000000011
20
102.25000000000001
42
0.41421356237309503
10
-97.487500000000011
20
101.75
10
-97.487500000000011
20
88.75
42
0.41421356237309503
10
-96.987500000000011
20
88.25
10
-83.987499999999997
20
88.25
42
0.41421356237309503
0
LWPOLYLINE
5
180
100
AcDbEntity
8
0
100
AcDbPolyline
90
8
70
1
43
0.0
10
-54.912500000000009
20
69.700000000000003
42
-0.41421356237309503
10
-55.412500000000009
20
69.200000000000003
10
-68.412499999999994
20
69.200000000000003
42
-0.41421356237310025
10
-68.912499999999994
20
69.700000000000003
10
-68.912500000000009
20
82.700000000000017
42
-0.41421356237307422
10
-68.412499999999994
20
83.200000000000017
10
-55.412500000000016
20
83.200000000000003
42
-0.41421356237310542
10
-54.912500000000009
20
82.700000000000017
0
LWPOLYLINE
5
181
100
AcDbEntity
8
0
100
AcDbPolyline
90
8
70
1
43
0.0
10
-164.44999999999996
20
50.650000000000006
42
-0.41421356237307422
10
-164.95000000000002
20
50.150000000000006
10
-177.94999999999999
20
50.150000000000006
42
-0.41421356237313145
10
-178.44999999999999
20
50.650000000000006
10
-178.45000000000002
20
63.650000000000006
42
-0.41421356237307422
10
-177.94999999999999
20
64.150000000000006
10
-164.95000000000002
20
64.150000000000006
42
-0.41421356237313667
10
-164.44999999999999
20
63.650000000000006
0
LWPOLYLINE
5
182
100
AcDbEntity
8
0
100
AcDbPolyline
90
8
70
1
43
0.0
10
-269.22500000000002
20
31.600000000000001
42
-0.41421356237304563
10
-269.72500000000002
20
31.100000000000001
10
-282.72500000000002
20
31.100000000000001
42
-0.41421356237313145
10
-283.22500000000002
20
31.600000000000001
10
-283.22500000000008
20
44.600000000000001
42
-0.41421356237307422
10
-282.72500000000002
20
45.099999999999994
10
-269.72500000000002
20
45.09999999999998
42
-0.41421356237312101
10
-269.22500000000002
20
44.600000000000001
0
LWPOLYLINE
5
183
100
AcDbEntity
8
0
100
AcDbPolyline
90
8
70
1
43
0.0
10
-7.2875000000000023
20
50.650000000000006
42
-0.41421356237309503
10
-7.7875000000000005
20
50.150000000000006
10
-20.787499999999994
20
50.150000000000006
42
-0.41421356237310025
10
-21.287500000000001
20
50.650000000000006
10
-21.287500000000005
20
63.650000000000006
42
-0.41421356237309764
10
-20.787500000000001
20
64.150000000000006
10
-7.7874999999999872
20
64.150000000000006
42
-0.41421356237308854
10
-7.2874999999999996
20
63.650000000000006
0
LWPOLYLINE
5
184
100
AcDbEntity
8
0
100
AcDbPolyline
90
8
70
1
43
0.0
10
-178.73750000000001
20
88.75
42
-0.41421356237313667
10
-179.23750000000001
20
88.25
10
-192.23750000000001
20
88.249999999999972
42
-0.41421356237310542
10
-192.73750000000004
20
88.75
10
-192.73750000000001
20
101.75
42
-0.41421356237310542
10
-192.23750000000001
20
102.25000000000001
10
-179.23750000000001
20
102.25000000000001
42
-0.41421356237313667
10
-178.73750000000001
20
101.75
0
CIRCLE
5
185
100
AcDbEntity
8
0
100
AcDbCircle
10
-257.17500000000001
20
127.87500000000017
30
0
40
1.4999999999999858
0
LWPOLYLINE
5
186
100
AcDbEntity
8
0
100
AcDbPolyline
90
8
70
1
43
0.0
10
-116.82500000000002
20
31.600000000000001
42
-0.41421356237310542
10
-117.32500000000002
20
31.100000000000001
10
-130.32499999999999
20
31.099999999999998
42
-0.41421356237309243
10
-130.82499999999999
20
31.600000000000001
10
-130.82499999999999
20
44.600000000000001
42
-0.41421356237308982
10
-130.32499999999999
20
45.099999999999994
10
-117.32500000000002
20
45.100000000000009
42
-0.41421356237309503
10
-116.82500000000002
20
44.600000000000001
0
LWPOLYLINE
5
187
100
AcDbEntity
8
0
100
AcDbPolyline
90
8
70
1
43
0.0
10
-250.17500000000001
20
31.600000000000001
42
-0.41421356237304563
10
-250.67500000000001
20
31.100000000000001
10
-263.67500000000001
20
31.100000000000001
42
-0.41421356237313145
10
-264.17500000000007
20
31.600000000000001
10
-264.17500000000007
20
44.600000000000001
42
-0.41421356237307422
10
-263.67500000000001
20
45.099999999999994
10
-250.67500000000001
20
45.09999999999998
42
-0.41421356237312101
10
-250.17500000000001
20
44.600000000000001
0
LWPOLYLINE
5
188
100
AcDbEntity
8
0
100
AcDbPolyline
90
8
70
1
43
0.0
10
-93.012499999999989
20
69.700000000000003
42
-0.41421356237310542
10
-93.512500000000003
20
69.200000000000003
10
-106.51250000000002
20
69.199999999999989
42
-0.41421356237310025
10
-107.01250000000002
20
69.700000000000003
10
-107.01250000000002
20
82.700000000000017
42
-0.41421356237307422
10
-106.51250000000002
20
83.200000000000017
10
-93.512500000000003
20
83.200000000000017
42
-0.41421356237307422
10
-93.012499999999989
20
82.700000000000017
0
LWPOLYLINE
5
189
100
AcDbEntity
8
0
100
AcDbPolyline
90
8
70
1
43
0.0
10
-92.224999999999994
20
31.099999999999998
42
-0.41421356237309243
10
-92.725000000000009
20
31.600000000000001
10
-92.725000000000009
20
44.600000000000001
42
-0.41421356237308982
10
-92.224999999999994
20
45.099999999999994
10
-79.224999999999994
20
45.099999999999994
42
-0.41421356237309503
10
-78.724999999999994
20
44.600000000000001
10
-78.725000000000009
20
31.600000000000001
42
-0.41421356237309764
10
-79.224999999999994
20
31.100000000000001
0
LWPOLYLINE
5
190
100
AcDbEntity
8
0
100
AcDbPolyline
90
8
70
1
43
0.0
10
-257.31874999999997
20
69.700000000000003
42
-0.41421356237307422
10
-257.81875000000002
20
69.200000000000003
10
-270.81875000000002
20
69.200000000000017
42
-0.41421356237312623
10
-271.31875000000002
20
69.700000000000003
10
-271.31875000000008
20
82.700000000000017
42
-0.4142135623730846
10
-270.81875000000002
20
83.200000000000017
10
-257.81875000000002
20
83.200000000000017
42
-0.41421356237309503
10
-257.31875000000002
20
82.700000000000017
0
ENDSEC
0
SECTION
2
OBJECTS
0
DICTIONARY
5
C
100
AcDbDictionary
3
ACAD_GROUP
350
D
3
ACAD_MLINESTYLE
350
17
0
DICTIONARY
5
D
100
AcDbDictionary
0
DICTIONARY
5
1A
330
C
100
AcDbDictionary
0
DICTIONARY
5
17
100
AcDbDictionary
0
ENDSEC
0
EOF
